<svg xmlns="http://www.w3.org/2000/svg" width="1372" height="2196" viewBox="0 0 1372 2196" font-family="IBM Plex Sans, Helvetica, Arial, sans-serif">
<rect width="100%" height="100%" fill="#fbf7ef"/>
<text x="40" y="52" font-size="30" font-weight="700" fill="#2a2420">Ground floor plan · no loft</text>
<text x="40" y="84" font-size="15" fill="#6a5d4e">Betalbatim pub · Concept 24 · 4.5 × 10.5 m shell (inside) · 23 covers inside + 8 in the garden · 31 covers in all</text>
<rect x="208.0" y="1693.2" width="588.0" height="232.8" rx="0" fill="#efe6d2" stroke="#b9a989" stroke-width="1" opacity="1"/><rect x="774.4" y="1906.8" width="19.2" height="19.2" rx="0" fill="#8f5634" stroke="#8f5634" stroke-width="1" opacity="1"/><rect x="210.4" y="1906.8" width="19.2" height="19.2" rx="0" fill="#8f5634" stroke="#8f5634" stroke-width="1" opacity="1"/><rect x="208.0" y="1698.0" width="588.0" height="19.2" rx="0" fill="none" stroke="#8f5634" stroke-width="1" opacity="1" stroke-dasharray="4 3"/><rect x="208.0" y="1906.8" width="588.0" height="19.2" rx="0" fill="none" stroke="#8f5634" stroke-width="1" opacity="1" stroke-dasharray="4 3"/><rect x="624.4" y="1743.6" width="91.2" height="144.0" rx="0" fill="#e8d3b0" stroke="#3a3128" stroke-width="1.4" opacity="1"/><text x="670.0" y="1819.5" font-size="11" fill="#2a2420" text-anchor="middle" font-weight="500" transform="rotate(90 670.0 1815.6)">1.2×0.76</text><rect x="722.8" y="1743.6" width="43.2" height="144.0" rx="0" fill="#f3e8d6" stroke="#3a3128" stroke-width="1.4" opacity="1"/><rect x="762.4" y="1743.6" width="4.8" height="144.0" rx="0" fill="#8f5634" stroke="#8f5634" stroke-width="1" opacity="1"/><rect x="574.0" y="1743.6" width="43.2" height="144.0" rx="0" fill="#f3e8d6" stroke="#3a3128" stroke-width="1.4" opacity="1"/><rect x="572.8" y="1743.6" width="4.8" height="144.0" rx="0" fill="#8f5634" stroke="#8f5634" stroke-width="1" opacity="1"/><rect x="288.4" y="1743.6" width="91.2" height="144.0" rx="0" fill="#e8d3b0" stroke="#3a3128" stroke-width="1.4" opacity="1"/><text x="334.0" y="1819.5" font-size="11" fill="#2a2420" text-anchor="middle" font-weight="500" transform="rotate(90 334.0 1815.6)">1.2×0.76</text><rect x="386.8" y="1743.6" width="43.2" height="144.0" rx="0" fill="#f3e8d6" stroke="#3a3128" stroke-width="1.4" opacity="1"/><rect x="426.4" y="1743.6" width="4.8" height="144.0" rx="0" fill="#8f5634" stroke="#8f5634" stroke-width="1" opacity="1"/><rect x="238.0" y="1743.6" width="43.2" height="144.0" rx="0" fill="#f3e8d6" stroke="#3a3128" stroke-width="1.4" opacity="1"/><rect x="236.8" y="1743.6" width="4.8" height="144.0" rx="0" fill="#8f5634" stroke="#8f5634" stroke-width="1" opacity="1"/><rect x="574.0" y="1928.4" width="222.0" height="21.6" rx="0" fill="#c97a5a" stroke="#8f4a32" stroke-width="1" opacity="1"/><rect x="208.0" y="1928.4" width="222.0" height="21.6" rx="0" fill="#c97a5a" stroke="#8f4a32" stroke-width="1" opacity="1"/><text x="502.0" y="1984.4" font-size="12.5" fill="#6a5d4e" text-anchor="middle" font-weight="500">BEER GARDEN · 4.9 × 2.0 m · 9.5 m² · 8 covers · pergola on 2 posts + facade ledger · PVC curtains on 3 sides</text><g stroke="#c4442a" stroke-width="1.2"><line x1="572.8" y1="1920.0" x2="431.20000000000005" y2="1920.0"/><line x1="572.8" y1="1914.0" x2="572.8" y2="1926.0"/><line x1="431.20000000000005" y1="1914.0" x2="431.20000000000005" y2="1926.0"/></g><text x="502.0" y="1915.0" font-size="12.5" fill="#b23a1e" text-anchor="middle" font-weight="600">path 1.18</text><g stroke="#c4442a" stroke-width="1.2"><line x1="820.0" y1="1926.0" x2="820.0" y2="1693.2"/><line x1="814.0" y1="1926.0" x2="826.0" y2="1926.0"/><line x1="814.0" y1="1693.2" x2="826.0" y2="1693.2"/></g><text x="814.0" y="1809.6" font-size="12.5" fill="#b23a1e" text-anchor="middle" font-weight="600" transform="rotate(-90 814.0 1809.6)">2.00</text><g stroke="#c4442a" stroke-width="1.2"><line x1="796.0" y1="2016.0" x2="207.99999999999997" y2="2016.0"/><line x1="796.0" y1="2010.0" x2="796.0" y2="2022.0"/><line x1="207.99999999999997" y1="2010.0" x2="207.99999999999997" y2="2022.0"/></g><text x="502.0" y="2011.0" font-size="12.5" fill="#b23a1e" text-anchor="middle" font-weight="600">4.90 (in line with the side walls)</text><rect x="232.0" y="1686.0" width="540.0" height="7.2" rx="0" fill="#9fb4c2" stroke="#4a6070" stroke-width="1" opacity="1"/><text x="502.0" y="1733.9" font-size="10" fill="#4a6070" text-anchor="middle" font-weight="500">glazed shopfront · doors open outward</text><rect x="772.0" y="402.0" width="24.0" height="1284.0" rx="0" fill="#4a4038" stroke="#4a4038" stroke-width="1" opacity="1"/><rect x="208.0" y="402.0" width="24.0" height="1284.0" rx="0" fill="#4a4038" stroke="#4a4038" stroke-width="1" opacity="1"/><rect x="208.0" y="402.0" width="588.0" height="24.0" rx="0" fill="#4a4038" stroke="#4a4038" stroke-width="1" opacity="1"/><rect x="744.4" y="1092.0" width="27.6" height="36.0" rx="0" fill="#4a4038" stroke="#4a4038" stroke-width="1" opacity="1"/><text x="886.0" y="1113.8" font-size="11" fill="#4a4038" text-anchor="middle" font-weight="700">P1 pillar 0.30×0.23</text><rect x="744.4" y="852.0" width="27.6" height="36.0" rx="0" fill="#4a4038" stroke="#4a4038" stroke-width="1" opacity="1"/><text x="886.0" y="873.9" font-size="11" fill="#4a4038" text-anchor="middle" font-weight="700">P2 pillar 0.30×0.23</text><rect x="338.2" y="426.0" width="27.6" height="1260.0" rx="0" fill="none" stroke="#8a7a62" stroke-width="1" opacity="1" stroke-dasharray="6 4"/><rect x="232.0" y="1095.0" width="540.0" height="30.0" rx="0" fill="none" stroke="#8a7a62" stroke-width="1" opacity="1" stroke-dasharray="6 4"/><rect x="365.8" y="855.0" width="406.2" height="30.0" rx="0" fill="none" stroke="#8a7a62" stroke-width="1" opacity="1" stroke-dasharray="6 4"/><rect x="469.0" y="885.0" width="18.0" height="210.0" rx="0" fill="none" stroke="#8a7a62" stroke-width="1" opacity="1" stroke-dasharray="6 4"/><rect x="712.0" y="1416.0" width="60.0" height="252.0" rx="0" fill="#d8c2a2" stroke="#3a3128" stroke-width="1.4" opacity="1"/><text x="742.0" y="1545.5" font-size="10" fill="#2a2420" text-anchor="middle" font-weight="500" transform="rotate(90 742.0 1542.0)">banquette 2.1×0.5</text><rect x="628.0" y="1524.0" width="84.0" height="144.0" rx="0" fill="#c69c6d" stroke="#3a3128" stroke-width="1.4" opacity="1"/><text x="670.0" y="1599.5" font-size="10" fill="#2a2420" text-anchor="middle" font-weight="500" transform="rotate(90 670.0 1596.0)">1.2×0.7</text><rect x="628.0" y="1416.0" width="84.0" height="72.0" rx="0" fill="#c69c6d" stroke="#3a3128" stroke-width="1.4" opacity="1"/><text x="670.0" y="1455.5" font-size="10" fill="#2a2420" text-anchor="middle" font-weight="500" transform="rotate(90 670.0 1452.0)">0.6×0.7</text><rect x="562.0" y="1605.6" width="52.8" height="52.8" rx="0" fill="#efe2c8" stroke="#3a3128" stroke-width="1.4" opacity="1"/><rect x="562.0" y="1533.6" width="52.8" height="52.8" rx="0" fill="#efe2c8" stroke="#3a3128" stroke-width="1.4" opacity="1"/><rect x="562.0" y="1425.6" width="52.8" height="52.8" rx="0" fill="#efe2c8" stroke="#3a3128" stroke-width="1.4" opacity="1"/><g stroke="#c4442a" stroke-width="1.2"><line x1="622.0" y1="1524.0000000000002" x2="622.0" y2="1488.0"/><line x1="616.0" y1="1524.0000000000002" x2="628.0" y2="1524.0000000000002"/><line x1="616.0" y1="1488.0" x2="628.0" y2="1488.0"/></g><text x="616.0" y="1506.0" font-size="12.5" fill="#b23a1e" text-anchor="middle" font-weight="600" transform="rotate(-90 616.0 1506.0)">0.30</text><text x="652.0" y="1396.2" font-size="12" fill="#2a2420" text-anchor="middle" font-weight="700">WINDOW TABLES · 4 + 2</text><rect x="232.0" y="1416.0" width="60.0" height="252.0" rx="0" fill="#d8c2a2" stroke="#3a3128" stroke-width="1.4" opacity="1"/><text x="262.0" y="1545.5" font-size="10" fill="#2a2420" text-anchor="middle" font-weight="500" transform="rotate(90 262.0 1542.0)">banquette 2.1×0.5</text><rect x="283.6" y="1524.0" width="88.8" height="144.0" rx="0" fill="#c69c6d" stroke="#3a3128" stroke-width="1.4" opacity="1"/><text x="328.0" y="1599.5" font-size="10" fill="#2a2420" text-anchor="middle" font-weight="500" transform="rotate(90 328.0 1596.0)">1.2×0.74</text><rect x="283.6" y="1416.0" width="88.8" height="72.0" rx="0" fill="#c69c6d" stroke="#3a3128" stroke-width="1.4" opacity="1"/><text x="328.0" y="1455.5" font-size="10" fill="#2a2420" text-anchor="middle" font-weight="500" transform="rotate(90 328.0 1452.0)">0.6×0.74</text><rect x="364.0" y="1416.0" width="54.0" height="252.0" rx="0" fill="#d8c2a2" stroke="#3a3128" stroke-width="1.4" opacity="1"/><rect x="408.4" y="1416.0" width="9.6" height="252.0" rx="0" fill="#8f6a4a" stroke="#8f6a4a" stroke-width="1" opacity="1"/><text x="386.8" y="1545.5" font-size="10" fill="#2a2420" text-anchor="middle" font-weight="500" transform="rotate(90 386.8 1542.0)">banquette 2.1×0.45</text><text x="352.0" y="1396.2" font-size="12" fill="#2a2420" text-anchor="middle" font-weight="700">BOOTH · 4 + 2</text><g stroke="#c4442a" stroke-width="1.2"><line x1="562.0" y1="1512.0000000000002" x2="418.0" y2="1512.0000000000002"/><line x1="562.0" y1="1506.0000000000002" x2="562.0" y2="1518.0000000000002"/><line x1="418.0" y1="1506.0000000000002" x2="418.0" y2="1518.0000000000002"/></g><text x="490.0" y="1507.0000000000002" font-size="12.5" fill="#b23a1e" text-anchor="middle" font-weight="600">entry 1.20 clear</text><rect x="232.0" y="1134.0" width="54.0" height="240.0" rx="0" fill="#d8c2a2" stroke="#3a3128" stroke-width="1.4" opacity="1"/><rect x="280.0" y="1140.0" width="60.0" height="228.0" rx="0" fill="#c69c6d" stroke="#3a3128" stroke-width="1.4" opacity="1"/><text x="310.0" y="1257.5" font-size="10" fill="#2a2420" text-anchor="middle" font-weight="500" transform="rotate(90 310.0 1254.0)">1.9×0.5 · table for 3</text><circle cx="259.6" cy="1332.0" r="15.6" fill="#efe2c8" stroke="#8f6a4a" stroke-width="1"/><circle cx="259.6" cy="1254.0" r="15.6" fill="#efe2c8" stroke="#8f6a4a" stroke-width="1"/><circle cx="259.6" cy="1176.0" r="15.6" fill="#efe2c8" stroke="#8f6a4a" stroke-width="1"/><text x="370.0" y="1258.2" font-size="12" fill="#2a2420" text-anchor="middle" font-weight="700" transform="rotate(90 370.0 1254.0)">BENCH · 3</text><g stroke="#c4442a" stroke-width="1.2"><line x1="466.0" y1="1166.4" x2="340.0" y2="1166.4"/><line x1="466.0" y1="1160.4" x2="466.0" y2="1172.4"/><line x1="340.0" y1="1160.4" x2="340.0" y2="1172.4"/></g><text x="403.0" y="1161.4" font-size="12.5" fill="#b23a1e" text-anchor="middle" font-weight="600">aisle 1.05</text><rect x="724.0" y="1050.0" width="48.0" height="360.0" rx="0" fill="#cfd7b2" stroke="#3a3128" stroke-width="1.4" opacity="1"/><text x="748.0" y="1233.8" font-size="11" fill="#2a2420" text-anchor="middle" font-weight="500" transform="rotate(90 748.0 1230.0)">back bar 3.0×0.4</text><rect x="520.0" y="1110.0" width="90.0" height="264.0" rx="0" fill="#efe7da" stroke="#3a3128" stroke-width="1.4" opacity="1"/><text x="564.4" y="1179.5" font-size="10" fill="#2a2420" text-anchor="middle" font-weight="500" transform="rotate(90 564.4 1176.0)">bar 2.2×0.75</text><rect x="610.0" y="1110.0" width="12.0" height="127.2" rx="0" fill="#c3c8cc" stroke="#3a3128" stroke-width="1.4" opacity="1"/><rect x="548.8" y="1239.6" width="75.6" height="132.0" rx="0" fill="#dfe9ee" stroke="#2a6f8f" stroke-width="1.4" opacity="1"/><circle cx="604.0" cy="1354.8" r="14.4" fill="none" stroke="#2a6f8f" stroke-width="1"/><circle cx="604.0" cy="1322.4" r="14.4" fill="none" stroke="#2a6f8f" stroke-width="1"/><circle cx="604.0" cy="1290.0" r="14.4" fill="none" stroke="#2a6f8f" stroke-width="1"/><circle cx="604.0" cy="1257.6" r="14.4" fill="none" stroke="#2a6f8f" stroke-width="1"/><circle cx="570.4" cy="1354.8" r="14.4" fill="none" stroke="#2a6f8f" stroke-width="1"/><circle cx="570.4" cy="1322.4" r="14.4" fill="none" stroke="#2a6f8f" stroke-width="1"/><circle cx="570.4" cy="1290.0" r="14.4" fill="none" stroke="#2a6f8f" stroke-width="1"/><circle cx="570.4" cy="1257.6" r="14.4" fill="none" stroke="#2a6f8f" stroke-width="1"/><text x="672.4" y="1308.9" font-size="9.5" fill="#2a6f8f" text-anchor="middle" font-weight="700" transform="rotate(90 672.4 1305.6)">KEG COOLER 1.1×0.63 · 8 kegs</text><rect x="724.0" y="1290.0" width="48.0" height="42.0" rx="0" fill="#e6d6bc" stroke="#8f6a4a" stroke-width="1" opacity="1"/><text x="748.0" y="1314.8" font-size="9" fill="#2a2420" text-anchor="middle" font-weight="700">CO₂</text><rect x="706.0" y="1131.6" width="18.0" height="152.4" rx="0" fill="#cfd7b2" stroke="#4a4038" stroke-width="1" opacity="1"/><rect x="706.0" y="1134.0" width="66.0" height="54.0" rx="0" fill="#9aa0a5" stroke="#4a4038" stroke-width="1.2" opacity="1"/><text x="739.6" y="1163.6" font-size="9" fill="#fff" text-anchor="middle" font-weight="700">GW</text><rect x="706.0" y="1194.0" width="66.0" height="84.0" rx="0" fill="#dff0f6" stroke="#2a6f8f" stroke-width="1.2" opacity="1"/><text x="739.6" y="1239.0" font-size="8.5" fill="#2a6f8f" text-anchor="middle" font-weight="700" transform="rotate(90 739.6 1236.0)">mixers</text><rect x="558.4" y="1119.6" width="66.0" height="60.0" rx="0" fill="none" stroke="#2a6f8f" stroke-width="1.2" opacity="1" stroke-dasharray="4 3"/><text x="592.0" y="1153.1" font-size="10" fill="#2a6f8f" text-anchor="middle" font-weight="700">ice</text><g stroke="#c4442a" stroke-width="1.2"><line x1="706.0" y1="1158.0" x2="622.0" y2="1158.0"/><line x1="706.0" y1="1152.0" x2="706.0" y2="1164.0"/><line x1="622.0" y1="1152.0" x2="622.0" y2="1164.0"/></g><text x="664.0" y="1153.0" font-size="12.5" fill="#b23a1e" text-anchor="middle" font-weight="600">0.70</text><rect x="724.0" y="1345.2" width="48.0" height="57.6" rx="0" fill="#e6d6bc" stroke="#3a3128" stroke-width="1.4" opacity="1"/><text x="748.0" y="1377.2" font-size="9" fill="#2a2420" text-anchor="middle" font-weight="700">POS</text><circle cx="493.6" cy="1344.0" r="25.2" fill="#efe2c8" stroke="#3a3128" stroke-width="1.4"/><circle cx="493.6" cy="1272.0" r="25.2" fill="#efe2c8" stroke="#3a3128" stroke-width="1.4"/><circle cx="493.6" cy="1200.0" r="25.2" fill="#efe2c8" stroke="#3a3128" stroke-width="1.4"/><circle cx="493.6" cy="1128.0" r="25.2" fill="#efe2c8" stroke="#3a3128" stroke-width="1.4"/><text x="448.0" y="1311.8" font-size="11" fill="#6a5d4e" text-anchor="middle" font-weight="500" transform="rotate(90 448.0 1308.0)">4 stools · 0.6 apart</text><rect x="712.0" y="894.0" width="60.0" height="192.0" rx="0" fill="#d8c2a2" stroke="#3a3128" stroke-width="1.4" opacity="1"/><text x="742.0" y="993.5" font-size="10" fill="#2a2420" text-anchor="middle" font-weight="500" transform="rotate(90 742.0 990.0)">banquette 1.6×0.5</text><rect x="631.6" y="918.0" width="88.8" height="144.0" rx="0" fill="#c69c6d" stroke="#3a3128" stroke-width="1.4" opacity="1"/><text x="676.0" y="993.5" font-size="10" fill="#2a2420" text-anchor="middle" font-weight="500" transform="rotate(90 676.0 990.0)">1.2×0.74</text><rect x="562.0" y="999.6" width="52.8" height="52.8" rx="0" fill="#efe2c8" stroke="#3a3128" stroke-width="1.4" opacity="1"/><rect x="562.0" y="927.6" width="52.8" height="52.8" rx="0" fill="#efe2c8" stroke="#3a3128" stroke-width="1.4" opacity="1"/><text x="538.0" y="993.9" font-size="11" fill="#2a2420" text-anchor="middle" font-weight="700" transform="rotate(90 538.0 990.0)">TABLE FOR 4</text><rect x="604.0" y="786.0" width="162.0" height="60.0" rx="0" fill="#cfd7b2" stroke="#3a3128" stroke-width="1.4" opacity="1"/><text x="684.4" y="819.5" font-size="10" fill="#2a2420" text-anchor="middle" font-weight="700">server station 1.35×0.5</text><rect x="376.0" y="801.6" width="18.0" height="50.4" rx="0" fill="#6d7276" stroke="#3a3128" stroke-width="1.4" opacity="1"/><text x="442.0" y="861.3" font-size="9.5" fill="#4a4038" text-anchor="middle" font-weight="500">DB + fire panel</text><rect x="232.0" y="1098.0" width="144.0" height="9.6" rx="0" fill="#d8c6ac" stroke="#d8c6ac" stroke-width="1" opacity="1"/><rect x="232.0" y="1008.0" width="144.0" height="90.0" rx="0" fill="#e9efe4" stroke="#8a9a7a" stroke-width="1" opacity="1"/><circle cx="268.0" cy="1053.0" r="30.0" fill="#ffffff" stroke="#3a3128" stroke-width="1.4"/><text x="331.6" y="1074.9" font-size="9.5" fill="#2a2420" text-anchor="middle" font-weight="700">HAND-WASH</text><text x="331.6" y="1038.9" font-size="9.5" fill="#2a2420" text-anchor="middle" font-weight="700">NICHE 1.2×0.75</text><circle cx="352.0" cy="1117.2" r="9.0" fill="#c8231b" stroke="#c8231b" stroke-width="1"/><circle cx="328.0" cy="1117.2" r="9.0" fill="#c8231b" stroke="#c8231b" stroke-width="1"/><rect x="232.0" y="996.0" width="144.0" height="12.0" rx="0" fill="#d8c6ac" stroke="#d8c6ac" stroke-width="1" opacity="1"/><rect x="364.0" y="948.0" width="12.0" height="48.0" rx="0" fill="#d8c6ac" stroke="#d8c6ac" stroke-width="1" opacity="1"/><rect x="364.0" y="786.0" width="12.0" height="78.0" rx="0" fill="#d8c6ac" stroke="#d8c6ac" stroke-width="1" opacity="1"/><rect x="232.0" y="786.0" width="132.0" height="210.0" rx="0" fill="#e9efe4" stroke="#8a9a7a" stroke-width="1" opacity="1"/><line x1="370.0" y1="948.0" x2="444.4" y2="888.0" stroke="#2a2420" stroke-width="1" stroke-dasharray="3 3"/><text x="298.0" y="895.5" font-size="11" fill="#2a2420" text-anchor="middle" font-weight="700">WC 1.1×1.75</text><rect x="242.8" y="789.6" width="38.4" height="74.4" rx="0" fill="#ffffff" stroke="#3a3128" stroke-width="1.4" opacity="1"/><rect x="232.0" y="945.6" width="28.8" height="36.0" rx="0" fill="#ffffff" stroke="#3a3128" stroke-width="1.4" opacity="1"/><rect x="232.0" y="914.4" width="66.0" height="3.6" rx="0" fill="#8f5634" stroke="#8f5634" stroke-width="1" opacity="1"/><rect x="232.0" y="774.0" width="540.0" height="12.0" rx="0" fill="#d8c6ac" stroke="#d8c6ac" stroke-width="1" opacity="1"/><rect x="484.0" y="774.0" width="114.0" height="12.0" rx="0" fill="#cfe3ea" stroke="#7a9aaa" stroke-width="1" opacity="1"/><rect x="382.0" y="774.0" width="90.0" height="12.0" rx="0" fill="#fbf7ef" stroke="#fbf7ef" stroke-width="1" opacity="1"/><text x="541.6" y="803.9" font-size="10" fill="#4a6070" text-anchor="middle" font-weight="500">pass</text><text x="427.6" y="803.9" font-size="10" fill="#6a5d4e" text-anchor="middle" font-weight="500">door</text><rect x="682.0" y="624.0" width="90.0" height="144.0" rx="0" fill="#c3c8cc" stroke="#3a3128" stroke-width="1.4" opacity="1"/><text x="726.4" y="699.5" font-size="10" fill="#2a2420" text-anchor="middle" font-weight="500" transform="rotate(90 726.4 696.0)">2-door reach-in</text><rect x="688.0" y="516.0" width="84.0" height="96.0" rx="0" fill="#c3c8cc" stroke="#3a3128" stroke-width="1.4" opacity="1"/><text x="742.0" y="567.5" font-size="10" fill="#2a2420" text-anchor="middle" font-weight="500" transform="rotate(90 742.0 564.0)">non-veg prep</text><text x="712.0" y="567.2" font-size="9" fill="#4a4038" text-anchor="middle" font-weight="500" transform="rotate(90 712.0 564.0)">rice cooker below</text><rect x="598.0" y="690.0" width="84.0" height="82.8" rx="0" fill="#c3c8cc" stroke="#3a3128" stroke-width="1.4" opacity="1"/><text x="640.0" y="747.5" font-size="10" fill="#2a2420" text-anchor="middle" font-weight="500">dumpling prep</text><text x="640.0" y="717.2" font-size="9" fill="#4a4038" text-anchor="middle" font-weight="500">+ u/c freezer</text><rect x="484.0" y="696.0" width="114.0" height="76.8" rx="0" fill="#c3c8cc" stroke="#3a3128" stroke-width="1.4" opacity="1"/><text x="541.6" y="735.5" font-size="10" fill="#2a2420" text-anchor="middle" font-weight="500">pass + heat lamp</text><rect x="628.0" y="426.0" width="144.0" height="78.0" rx="0" fill="#9aa0a5" stroke="#3a3128" stroke-width="1.4" opacity="1"/><text x="700.0" y="469.1" font-size="10" fill="#fff" text-anchor="middle" font-weight="700">wok ×2</text><rect x="526.0" y="426.0" width="96.0" height="78.0" rx="0" fill="#9aa0a5" stroke="#3a3128" stroke-width="1.4" opacity="1"/><text x="574.0" y="469.1" font-size="10" fill="#fff" text-anchor="middle" font-weight="700">steamer</text><rect x="448.0" y="426.0" width="72.0" height="78.0" rx="0" fill="#9aa0a5" stroke="#3a3128" stroke-width="1.4" opacity="1"/><text x="484.0" y="469.1" font-size="10" fill="#fff" text-anchor="middle" font-weight="700">fryer ×2</text><rect x="376.0" y="426.0" width="66.0" height="78.0" rx="0" fill="#9aa0a5" stroke="#3a3128" stroke-width="1.4" opacity="1"/><text x="409.0" y="469.1" font-size="10" fill="#fff" text-anchor="middle" font-weight="700">range ×2</text><rect x="370.0" y="428.4" width="399.6" height="111.6" rx="0" fill="none" stroke="#c4442a" stroke-width="1.3" opacity="1" stroke-dasharray="8 4"/><text x="574.0" y="525.5" font-size="10" fill="#b23a1e" text-anchor="middle" font-weight="500">canopy hood 3.4×0.95 (bottom 2.05 m)</text><rect x="232.0" y="672.0" width="78.0" height="84.0" rx="0" fill="#c3c8cc" stroke="#3a3128" stroke-width="1.4" opacity="1"/><text x="271.6" y="717.5" font-size="10" fill="#2a2420" text-anchor="middle" font-weight="500">hand-wash</text><rect x="232.0" y="594.0" width="78.0" height="78.0" rx="0" fill="#c3c8cc" stroke="#3a3128" stroke-width="1.4" opacity="1"/><text x="271.6" y="651.5" font-size="10" fill="#2a2420" text-anchor="middle" font-weight="500">pre-rinse</text><text x="271.6" y="621.1" font-size="9" fill="#4a4038" text-anchor="middle" font-weight="500">u/c dishwasher</text><rect x="232.0" y="498.0" width="78.0" height="96.0" rx="0" fill="#c3c8cc" stroke="#3a3128" stroke-width="1.4" opacity="1"/><text x="271.6" y="549.5" font-size="10" fill="#2a2420" text-anchor="middle" font-weight="500">2-bowl pot sink</text><text x="574.0" y="592.2" font-size="12" fill="#2a2420" text-anchor="middle" font-weight="700">KITCHEN 4.5 × 2.9 · ceiling 2.7</text><rect x="388.0" y="564.0" width="72.0" height="96.0" rx="0" fill="none" stroke="#2a6f8f" stroke-width="1.4" opacity="1" stroke-dasharray="5 3"/><text x="424.0" y="630.9" font-size="9.5" fill="#2a6f8f" text-anchor="middle" font-weight="700">hatch</text><text x="424.0" y="599.7" font-size="9.5" fill="#2a6f8f" text-anchor="middle" font-weight="500">+ ladder</text><text x="574.0" y="627.5" font-size="10" fill="#2a6f8f" text-anchor="middle" font-weight="500">storage deck above (+2.7 m, 12.6 m²)</text><rect x="268.0" y="402.0" width="96.0" height="24.0" rx="0" fill="#fbf7ef" stroke="#fbf7ef" stroke-width="1" opacity="1"/><text x="316.0" y="387.9" font-size="11" fill="#6a5d4e" text-anchor="middle" font-weight="500">rear exit</text><rect x="652.0" y="300.0" width="108.0" height="84.0" rx="0" fill="#f3d6cf" stroke="#b23a1e" stroke-width="1" opacity="1"/><text x="706.0" y="345.5" font-size="10" fill="#b23a1e" text-anchor="middle" font-weight="500">LPG cage</text><rect x="214.0" y="192.0" width="72.0" height="72.0" rx="0" fill="#e9e9e9" stroke="#3a3128" stroke-width="1.4" opacity="1"/><text x="250.0" y="231.3" font-size="9.5" fill="#2a2420" text-anchor="middle" font-weight="500">empties</text><rect x="466.0" y="198.0" width="108.0" height="84.0" rx="0" fill="#d9c7a8" stroke="#8f5634" stroke-width="1.4" opacity="1"/><text x="520.0" y="243.5" font-size="10" fill="#2a2420" text-anchor="middle" font-weight="500">bins 0.9×0.7</text><rect x="214.0" y="360.0" width="54.0" height="39.6" rx="0" fill="#ffffff" stroke="#4a6070" stroke-width="1" opacity="1"/><text x="241.6" y="339.0" font-size="8.5" fill="#2a4a5a" text-anchor="middle" font-weight="500">cooler compressor</text><rect x="400.0" y="363.6" width="96.0" height="36.0" rx="0" fill="#ffffff" stroke="#3a3128" stroke-width="1.4" opacity="1"/><text x="448.0" y="384.8" font-size="9" fill="#2a2420" text-anchor="middle" font-weight="500">AC ×2</text><g stroke="#c4442a" stroke-width="1.2"><line x1="232.0" y1="402.00000000000017" x2="772.0" y2="402.00000000000017"/><line x1="232.0" y1="396.00000000000017" x2="232.0" y2="408.00000000000017"/><line x1="772.0" y1="396.00000000000017" x2="772.0" y2="408.00000000000017"/></g><text x="502.0" y="397.00000000000017" font-size="12.5" fill="#b23a1e" text-anchor="middle" font-weight="600">4.50 (inside)</text><g stroke="#c4442a" stroke-width="1.2"><line x1="161.99999999999997" y1="1686.0" x2="161.99999999999997" y2="426.0000000000001"/><line x1="155.99999999999997" y1="1686.0" x2="167.99999999999997" y2="1686.0"/><line x1="155.99999999999997" y1="426.0000000000001" x2="167.99999999999997" y2="426.0000000000001"/></g><text x="155.99999999999997" y="1056.0" font-size="12.5" fill="#b23a1e" text-anchor="middle" font-weight="600" transform="rotate(-90 155.99999999999997 1056.0)">10.50 (inside)</text><g stroke="#c4442a" stroke-width="1.2"><line x1="848.0" y1="1686.0" x2="848.0" y2="1410.0"/><line x1="842.0" y1="1686.0" x2="854.0" y2="1686.0"/><line x1="842.0" y1="1410.0" x2="854.0" y2="1410.0"/></g><text x="842.0" y="1548.0" font-size="12.5" fill="#b23a1e" text-anchor="middle" font-weight="600" transform="rotate(-90 842.0 1548.0)">2.30</text><g stroke="#c4442a" stroke-width="1.2"><line x1="848.0" y1="1410.0" x2="848.0" y2="1050.0"/><line x1="842.0" y1="1410.0" x2="854.0" y2="1410.0"/><line x1="842.0" y1="1050.0" x2="854.0" y2="1050.0"/></g><text x="842.0" y="1230.0" font-size="12.5" fill="#b23a1e" text-anchor="middle" font-weight="600" transform="rotate(-90 842.0 1230.0)">bar 3.00</text><g stroke="#c4442a" stroke-width="1.2"><line x1="848.0" y1="1086.0" x2="848.0" y2="894.0000000000001"/><line x1="842.0" y1="1086.0" x2="854.0" y2="1086.0"/><line x1="842.0" y1="894.0000000000001" x2="854.0" y2="894.0000000000001"/></g><text x="842.0" y="990.0" font-size="12.5" fill="#b23a1e" text-anchor="middle" font-weight="600" transform="rotate(-90 842.0 990.0)">1.60</text><g stroke="#c4442a" stroke-width="1.2"><line x1="848.0" y1="786.0000000000001" x2="848.0" y2="426.0000000000001"/><line x1="842.0" y1="786.0000000000001" x2="854.0" y2="786.0000000000001"/><line x1="842.0" y1="426.0000000000001" x2="854.0" y2="426.0000000000001"/></g><text x="842.0" y="606.0000000000001" font-size="12.5" fill="#b23a1e" text-anchor="middle" font-weight="600" transform="rotate(-90 842.0 606.0000000000001)">kitchen 3.00</text><g stroke="#c4442a" stroke-width="1.2"><line x1="189.99999999999997" y1="1668.0" x2="189.99999999999997" y2="1416.0"/><line x1="183.99999999999997" y1="1668.0" x2="195.99999999999997" y2="1668.0"/><line x1="183.99999999999997" y1="1416.0" x2="195.99999999999997" y2="1416.0"/></g><text x="183.99999999999997" y="1542.0" font-size="12.5" fill="#b23a1e" text-anchor="middle" font-weight="600" transform="rotate(-90 183.99999999999997 1542.0)">2.10</text><g stroke="#c4442a" stroke-width="1.2"><line x1="189.99999999999997" y1="1374.0000000000002" x2="189.99999999999997" y2="1134.0"/><line x1="183.99999999999997" y1="1374.0000000000002" x2="195.99999999999997" y2="1374.0000000000002"/><line x1="183.99999999999997" y1="1134.0" x2="195.99999999999997" y2="1134.0"/></g><text x="183.99999999999997" y="1254.0" font-size="12.5" fill="#b23a1e" text-anchor="middle" font-weight="600" transform="rotate(-90 183.99999999999997 1254.0)">bench 2.00</text><g stroke="#c4442a" stroke-width="1.2"><line x1="189.99999999999997" y1="1098.0" x2="189.99999999999997" y2="1008.0"/><line x1="183.99999999999997" y1="1098.0" x2="195.99999999999997" y2="1098.0"/><line x1="183.99999999999997" y1="1008.0" x2="195.99999999999997" y2="1008.0"/></g><text x="183.99999999999997" y="1053.0" font-size="12.5" fill="#b23a1e" text-anchor="middle" font-weight="600" transform="rotate(-90 183.99999999999997 1053.0)">0.75</text><g stroke="#c4442a" stroke-width="1.2"><line x1="189.99999999999997" y1="996.0000000000001" x2="189.99999999999997" y2="786.0000000000001"/><line x1="183.99999999999997" y1="996.0000000000001" x2="195.99999999999997" y2="996.0000000000001"/><line x1="183.99999999999997" y1="786.0000000000001" x2="195.99999999999997" y2="786.0000000000001"/></g><text x="183.99999999999997" y="891.0000000000001" font-size="12.5" fill="#b23a1e" text-anchor="middle" font-weight="600" transform="rotate(-90 183.99999999999997 891.0000000000001)">WC 1.75</text><g stroke="#c4442a" stroke-width="1.2"><line x1="562.0" y1="930.0000000000001" x2="376.0" y2="930.0000000000001"/><line x1="562.0" y1="924.0000000000001" x2="562.0" y2="936.0000000000001"/><line x1="376.0" y1="924.0000000000001" x2="376.0" y2="936.0000000000001"/></g><text x="469.0" y="925.0000000000001" font-size="12.5" fill="#b23a1e" text-anchor="middle" font-weight="600">1.55 clear</text><text x="502.0" y="1101.5" font-size="10" fill="#8a7a62" text-anchor="middle" font-weight="500">(T1 overhead 4.05)</text>
<g transform="translate(40,2136)"><rect width="120" height="10" fill="#2a2420"/><rect x="120" width="120" height="10" fill="none" stroke="#2a2420"/><text y="30" font-size="13" fill="#2a2420">0</text><text x="120" y="30" font-size="13" text-anchor="middle" fill="#2a2420">1 m</text><text x="240" y="30" font-size="13" text-anchor="middle" fill="#2a2420">2 m</text>
<text x="300" y="10" font-size="13" fill="#6a5d4e">All dimensions in metres. Left/right as you walk in from the road (road at the bottom). Dashed = overhead beams, kitchen hood and storage hatch.</text></g>
<g font-family="IBM Plex Sans, Helvetica, Arial, sans-serif"><rect x="1054" y="136" width="290" height="360" fill="#fffdf8" stroke="#d9cbb3"/><text x="1072" y="162" font-size="15" font-weight="700" fill="#2a2420">COVERS</text><text x="1072" y="192" font-size="14" fill="#2a2420">Bar stools</text><text x="1326" y="192" font-size="14" text-anchor="end" fill="#2a2420">4</text><text x="1072" y="222" font-size="14" fill="#2a2420">Window tables, right</text><text x="1326" y="222" font-size="14" text-anchor="end" fill="#2a2420">6</text><text x="1072" y="252" font-size="14" fill="#2a2420">Window booth, left</text><text x="1326" y="252" font-size="14" text-anchor="end" fill="#2a2420">6</text><text x="1072" y="282" font-size="14" fill="#2a2420">Bench facing the bar</text><text x="1326" y="282" font-size="14" text-anchor="end" fill="#2a2420">3</text><text x="1072" y="312" font-size="14" fill="#2a2420">Table between the pillars</text><text x="1326" y="312" font-size="14" text-anchor="end" fill="#2a2420">4</text><text x="1072" y="342" font-size="14" fill="#2a2420">Beer garden, 4.9 × 2.0 m</text><text x="1326" y="342" font-size="14" text-anchor="end" fill="#2a2420">8</text><line x1="1072" y1="352" x2="1326" y2="352" stroke="#2a2420"/><text x="1072" y="372" font-size="14" fill="#2a2420" font-weight="700">Total</text><text x="1326" y="372" font-size="14" text-anchor="end" fill="#2a2420" font-weight="700">31</text><text x="1072" y="410" font-size="12.5" fill="#6a5d4e">No loft, no stair: one double-height</text><text x="1072" y="429" font-size="12.5" fill="#6a5d4e">room. Every seat has a backrest.</text><text x="1072" y="448" font-size="12.5" fill="#6a5d4e">Kitchen sized to the 22-dish menu.</text><text x="1072" y="467" font-size="12.5" fill="#6a5d4e">Storage deck over the kitchen.</text><text x="1072" y="486" font-size="12.5" fill="#6a5d4e">Kegs in a cooler inside the bar counter;</text><text x="1072" y="505" font-size="12.5" fill="#6a5d4e">glasswasher + mixer cooler built in.</text><text x="1072" y="524" font-size="12.5" fill="#6a5d4e">Acoustic cloud in every bay;</text><text x="1072" y="543" font-size="12.5" fill="#6a5d4e">printed fabric panels on upper walls.</text></g></svg>