<svg xmlns="http://www.w3.org/2000/svg" width="1456" height="2016" viewBox="0 0 1456 2016" font-family="IBM Plex Sans, Helvetica, Arial, sans-serif">
<rect width="100%" height="100%" fill="#fbf7ef"/>
<text x="40" y="52" font-size="30" font-weight="700" fill="#2a2420">Ground floor plan · 4.9 × 8.8 m</text>
<text x="40" y="84" font-size="15" fill="#6a5d4e">Betalbatim pub · Concept 25 · from the shop drawing (47 m² super built-up) · 20 covers inside + 8 in the garden · 28 covers in all</text>
<rect x="74.0" y="174.0" width="918.0" height="252.0" fill="#e3ddd4" stroke="none" stroke-width="1.4"/><line x1="884.0" y1="342.0" x2="884.0" y2="174.0" stroke="#ffffff" stroke-width="3"/><line x1="572.0" y1="342.0" x2="572.0" y2="174.0" stroke="#ffffff" stroke-width="3"/><line x1="260.0" y1="342.0" x2="260.0" y2="174.0" stroke="#ffffff" stroke-width="3"/><text x="524.0" y="226.2" font-size="12" fill="#6a5d4e" text-anchor="middle" font-weight="600">PARKING BEHIND · nothing stored here · rear door is the kitchen fire exit</text><rect x="866.0" y="426.0" width="168.0" height="1092.0" fill="#e3ddd4" stroke="none" stroke-width="1.4"/><line x1="866.0" y1="1518.0" x2="866.0" y2="426.0" stroke="#ffffff" stroke-width="2" stroke-dasharray="8 6"/><text x="950.0" y="1245.9" font-size="11" fill="#6a5d4e" text-anchor="middle" font-weight="700" transform="rotate(90 950.0 1242.0)">CAR PATHWAY</text><rect x="770.0" y="426.0" width="96.0" height="1092.0" fill="#ece6db" stroke="none" stroke-width="1.4"/><text x="818.0" y="717.2" font-size="9" fill="#6a5d4e" text-anchor="middle" font-weight="500" transform="rotate(90 818.0 714.0)">usable strip 0.8 m</text><circle cx="868.4" cy="1464.0" r="7.8" fill="#e0b030" stroke="#2a2420" stroke-width="1"/><circle cx="868.4" cy="1356.0" r="7.8" fill="#e0b030" stroke="#2a2420" stroke-width="1"/><circle cx="868.4" cy="1248.0" r="7.8" fill="#e0b030" stroke="#2a2420" stroke-width="1"/><circle cx="868.4" cy="1146.0" r="7.8" fill="#e0b030" stroke="#2a2420" stroke-width="1"/><circle cx="868.4" cy="1038.0" r="7.8" fill="#e0b030" stroke="#2a2420" stroke-width="1"/><circle cx="868.4" cy="924.0" r="7.8" fill="#e0b030" stroke="#2a2420" stroke-width="1"/><rect x="134.0" y="1513.2" width="636.0" height="232.8" fill="#efe6d2" stroke="#b9a989" stroke-width="1"/><rect x="748.4" y="1726.8" width="19.2" height="19.2" fill="#8f5634" stroke="#8f5634" stroke-width="1"/><rect x="136.4" y="1726.8" width="19.2" height="19.2" fill="#8f5634" stroke="#8f5634" stroke-width="1"/><rect x="134.0" y="1518.0" width="636.0" height="19.2" fill="none" stroke="#8f5634" stroke-width="1" stroke-dasharray="4 3"/><rect x="134.0" y="1726.8" width="636.0" height="19.2" fill="none" stroke="#8f5634" stroke-width="1" stroke-dasharray="4 3"/><rect x="586.4" y="1563.6" width="91.2" height="144.0" fill="#e8d3b0" stroke="#3a3128" stroke-width="1.4"/><text x="632.0" y="1639.1" font-size="10" fill="#2a2420" text-anchor="middle" font-weight="500" transform="rotate(90 632.0 1635.6)">1.2×0.76</text><rect x="684.8" y="1563.6" width="43.2" height="144.0" fill="#f3e8d6" stroke="#3a3128" stroke-width="1.4"/><rect x="724.4" y="1563.6" width="4.8" height="144.0" fill="#8f5634" stroke="#8f5634" stroke-width="1"/><rect x="536.0" y="1563.6" width="43.2" height="144.0" fill="#f3e8d6" stroke="#3a3128" stroke-width="1.4"/><rect x="534.8" y="1563.6" width="4.8" height="144.0" fill="#8f5634" stroke="#8f5634" stroke-width="1"/><rect x="226.4" y="1563.6" width="91.2" height="144.0" fill="#e8d3b0" stroke="#3a3128" stroke-width="1.4"/><text x="272.0" y="1639.1" font-size="10" fill="#2a2420" text-anchor="middle" font-weight="500" transform="rotate(90 272.0 1635.6)">1.2×0.76</text><rect x="324.8" y="1563.6" width="43.2" height="144.0" fill="#f3e8d6" stroke="#3a3128" stroke-width="1.4"/><rect x="364.4" y="1563.6" width="4.8" height="144.0" fill="#8f5634" stroke="#8f5634" stroke-width="1"/><rect x="176.0" y="1563.6" width="43.2" height="144.0" fill="#f3e8d6" stroke="#3a3128" stroke-width="1.4"/><rect x="174.8" y="1563.6" width="4.8" height="144.0" fill="#8f5634" stroke="#8f5634" stroke-width="1"/><rect x="524.0" y="1748.4" width="246.0" height="21.6" fill="#c97a5a" stroke="#8f4a32" stroke-width="1"/><rect x="134.0" y="1748.4" width="246.0" height="21.6" fill="#c97a5a" stroke="#8f4a32" stroke-width="1"/><g stroke="#c4442a" stroke-width="1.2"><line x1="534.8" y1="1740.0" x2="369.20000000000005" y2="1740.0"/><line x1="534.8" y1="1734.0" x2="534.8" y2="1746.0"/><line x1="369.20000000000005" y1="1734.0" x2="369.20000000000005" y2="1746.0"/></g><text x="452.0" y="1735.0" font-size="12" fill="#b23a1e" text-anchor="middle" font-weight="600">path 1.38</text><g stroke="#c4442a" stroke-width="1.2"><line x1="98.0" y1="1746.0" x2="98.0" y2="1513.2"/><line x1="92.0" y1="1746.0" x2="104.0" y2="1746.0"/><line x1="92.0" y1="1513.2" x2="104.0" y2="1513.2"/></g><text x="92.0" y="1629.6" font-size="12" fill="#b23a1e" text-anchor="middle" font-weight="600" transform="rotate(-90 92.0 1629.6)">2.00</text><text x="452.0" y="1804.2" font-size="12" fill="#6a5d4e" text-anchor="middle" font-weight="500">BEER GARDEN · 5.3 × 2.0 m · 8 covers · pergola on 2 posts + facade ledger · PVC curtains on 3 sides</text><g stroke="#c4442a" stroke-width="1.2"><line x1="770.0000000000001" y1="1836.0" x2="133.99999999999997" y2="1836.0"/><line x1="770.0000000000001" y1="1830.0" x2="770.0000000000001" y2="1842.0"/><line x1="133.99999999999997" y1="1830.0" x2="133.99999999999997" y2="1842.0"/></g><text x="452.00000000000006" y="1831.0" font-size="12" fill="#b23a1e" text-anchor="middle" font-weight="600">5.30 (in line with the side walls)</text><rect x="746.0" y="426.0" width="24.0" height="1080.0" fill="#4a4038" stroke="#4a4038" stroke-width="1"/><rect x="134.0" y="426.0" width="24.0" height="1080.0" fill="#4a4038" stroke="#4a4038" stroke-width="1"/><rect x="338.0" y="426.0" width="408.0" height="24.0" fill="#4a4038" stroke="#4a4038" stroke-width="1"/><rect x="158.0" y="426.0" width="84.0" height="24.0" fill="#4a4038" stroke="#4a4038" stroke-width="1"/><line x1="242.0" y1="426.0" x2="316.4" y2="366.0" stroke="#2a2420" stroke-width="1" stroke-dasharray="3 3"/><text x="290.0" y="399.5" font-size="10" fill="#6a5d4e" text-anchor="middle" font-weight="500">rear exit</text><rect x="158.0" y="1506.0" width="588.0" height="7.2" fill="#9fb4c2" stroke="#4a6070" stroke-width="1"/><text x="452.0" y="1553.9" font-size="10" fill="#4a6070" text-anchor="middle" font-weight="500">glazed shopfront · doors open outward</text><rect x="718.4" y="912.0" width="27.6" height="36.0" fill="#4a4038" stroke="#4a4038" stroke-width="1"/><rect x="718.4" y="672.0" width="27.6" height="36.0" fill="#4a4038" stroke="#4a4038" stroke-width="1"/><rect x="264.2" y="450.0" width="27.6" height="1056.0" fill="none" stroke="#8a7a62" stroke-width="1" stroke-dasharray="6 4"/><rect x="158.0" y="915.0" width="588.0" height="30.0" fill="none" stroke="#8a7a62" stroke-width="1" stroke-dasharray="6 4"/><rect x="291.8" y="675.0" width="454.2" height="30.0" fill="none" stroke="#8a7a62" stroke-width="1" stroke-dasharray="6 4"/><rect x="395.0" y="705.0" width="18.0" height="210.0" fill="none" stroke="#8a7a62" stroke-width="1" stroke-dasharray="6 4"/><rect x="686.0" y="1236.0" width="60.0" height="252.0" fill="#d8c2a2" stroke="#3a3128" stroke-width="1.4"/><text x="716.0" y="1365.3" font-size="9.5" fill="#2a2420" text-anchor="middle" font-weight="500" transform="rotate(90 716.0 1362.0)">banquette 2.1×0.5</text><rect x="602.0" y="1344.0" width="84.0" height="144.0" fill="#c69c6d" stroke="#3a3128" stroke-width="1.4"/><text x="644.0" y="1419.5" font-size="10" fill="#2a2420" text-anchor="middle" font-weight="500" transform="rotate(90 644.0 1416.0)">1.2×0.7</text><rect x="602.0" y="1236.0" width="84.0" height="72.0" fill="#c69c6d" stroke="#3a3128" stroke-width="1.4"/><text x="644.0" y="1275.5" font-size="10" fill="#2a2420" text-anchor="middle" font-weight="500" transform="rotate(90 644.0 1272.0)">0.6×0.7</text><rect x="536.0" y="1425.6" width="52.8" height="52.8" fill="#efe2c8" stroke="#3a3128" stroke-width="1.4"/><rect x="536.0" y="1353.6" width="52.8" height="52.8" fill="#efe2c8" stroke="#3a3128" stroke-width="1.4"/><rect x="536.0" y="1245.6" width="52.8" height="52.8" fill="#efe2c8" stroke="#3a3128" stroke-width="1.4"/><text x="626.0" y="1229.9" font-size="10" fill="#2a2420" text-anchor="middle" font-weight="700">WINDOW TABLES · 4 + 2</text><rect x="158.0" y="1236.0" width="60.0" height="252.0" fill="#d8c2a2" stroke="#3a3128" stroke-width="1.4"/><text x="188.0" y="1365.3" font-size="9.5" fill="#2a2420" text-anchor="middle" font-weight="500" transform="rotate(90 188.0 1362.0)">banquette 2.1×0.5</text><rect x="290.0" y="1236.0" width="54.0" height="252.0" fill="#d8c2a2" stroke="#3a3128" stroke-width="1.4"/><rect x="334.4" y="1236.0" width="9.6" height="252.0" fill="#8f6a4a" stroke="#8f6a4a" stroke-width="1"/><rect x="209.6" y="1344.0" width="88.8" height="144.0" fill="#c69c6d" stroke="#3a3128" stroke-width="1.4"/><text x="254.0" y="1419.5" font-size="10" fill="#2a2420" text-anchor="middle" font-weight="500" transform="rotate(90 254.0 1416.0)">1.2×0.74</text><rect x="209.6" y="1236.0" width="88.8" height="72.0" fill="#c69c6d" stroke="#3a3128" stroke-width="1.4"/><text x="254.0" y="1275.5" font-size="10" fill="#2a2420" text-anchor="middle" font-weight="500" transform="rotate(90 254.0 1272.0)">0.6×0.74</text><text x="302.0" y="1229.9" font-size="10" fill="#2a2420" text-anchor="middle" font-weight="700">BOOTH · 4 + 2</text><g stroke="#c4442a" stroke-width="1.2"><line x1="536.0" y1="1326.0" x2="344.0" y2="1326.0"/><line x1="536.0" y1="1320.0" x2="536.0" y2="1332.0"/><line x1="344.0" y1="1320.0" x2="344.0" y2="1332.0"/></g><text x="440.0" y="1321.0" font-size="12" fill="#b23a1e" text-anchor="middle" font-weight="600">entry 1.60 clear</text><rect x="158.0" y="1080.0" width="54.0" height="138.0" fill="#d8c2a2" stroke="#3a3128" stroke-width="1.4"/><rect x="206.0" y="1086.0" width="66.0" height="126.0" fill="#c69c6d" stroke="#3a3128" stroke-width="1.4"/><text x="238.4" y="1152.9" font-size="9.5" fill="#2a2420" text-anchor="middle" font-weight="500" transform="rotate(90 238.4 1149.6)">1.05×0.55</text><circle cx="185.6" cy="1182.0" r="14.4" fill="#efe2c8" stroke="#8f6a4a" stroke-width="1"/><circle cx="185.6" cy="1116.0" r="14.4" fill="#efe2c8" stroke="#8f6a4a" stroke-width="1"/><text x="296.0" y="1153.4" font-size="11" fill="#2a2420" text-anchor="middle" font-weight="700" transform="rotate(90 296.0 1149.6)">BENCH · 2</text><rect x="158.0" y="1064.4" width="144.0" height="9.6" fill="#d8c6ac" stroke="#d8c6ac" stroke-width="1"/><rect x="158.0" y="974.4" width="132.0" height="90.0" fill="#e9efe4" stroke="#8a9a7a" stroke-width="1"/><circle cx="194.0" cy="1019.4" r="30.0" fill="#ffffff" stroke="#3a3128" stroke-width="1.4"/><text x="248.0" y="1022.6" font-size="9" fill="#2a2420" text-anchor="middle" font-weight="700">HAND-WASH</text><rect x="158.0" y="962.4" width="144.0" height="12.0" fill="#d8c6ac" stroke="#d8c6ac" stroke-width="1"/><rect x="290.0" y="924.0" width="12.0" height="38.4" fill="#d8c6ac" stroke="#d8c6ac" stroke-width="1"/><rect x="290.0" y="750.0" width="12.0" height="90.0" fill="#d8c6ac" stroke="#d8c6ac" stroke-width="1"/><rect x="158.0" y="750.0" width="132.0" height="212.4" fill="#e9efe4" stroke="#8a9a7a" stroke-width="1"/><text x="230.0" y="879.5" font-size="10" fill="#2a2420" text-anchor="middle" font-weight="700">WC 1.1×1.77</text><rect x="158.0" y="906.0" width="28.8" height="36.0" fill="#ffffff" stroke="#3a3128" stroke-width="1.4"/><rect x="158.0" y="878.4" width="66.0" height="3.6" fill="#8f5634" stroke="#8f5634" stroke-width="1"/><rect x="186.8" y="753.6" width="38.4" height="68.4" fill="#ffffff" stroke="#3a3128" stroke-width="1.4"/><line x1="296.0" y1="924.0" x2="370.4" y2="864.0" stroke="#2a2420" stroke-width="1" stroke-dasharray="3 3"/><rect x="302.0" y="765.6" width="18.0" height="50.4" fill="#6d7276" stroke="#3a3128" stroke-width="1.4"/><text x="362.0" y="794.0" font-size="9" fill="#4a4038" text-anchor="middle" font-weight="500">DB + fire panel</text><circle cx="278.0" cy="1083.6" r="8.4" fill="#c8231b" stroke="#c8231b" stroke-width="1"/><circle cx="254.0" cy="1083.6" r="8.4" fill="#c8231b" stroke="#c8231b" stroke-width="1"/><rect x="698.0" y="912.0" width="48.0" height="318.0" fill="#cfd7b2" stroke="#3a3128" stroke-width="1.4"/><rect x="680.0" y="951.6" width="18.0" height="152.4" fill="#cfd7b2" stroke="#4a4038" stroke-width="1"/><rect x="680.0" y="954.0" width="66.0" height="54.0" fill="#9aa0a5" stroke="#4a4038" stroke-width="1.2"/><text x="706.4" y="983.4" font-size="8.5" fill="#fff" text-anchor="middle" font-weight="700">GW</text><rect x="680.0" y="1014.0" width="66.0" height="84.0" fill="#dff0f6" stroke="#2a6f8f" stroke-width="1.2"/><text x="706.4" y="1059.0" font-size="8.5" fill="#2a6f8f" text-anchor="middle" font-weight="700" transform="rotate(90 706.4 1056.0)">mixers</text><rect x="698.0" y="1165.2" width="48.0" height="57.6" fill="#e6d6bc" stroke="#3a3128" stroke-width="1.4"/><text x="722.0" y="1197.0" font-size="8.5" fill="#2a2420" text-anchor="middle" font-weight="700">POS</text><rect x="698.0" y="1110.0" width="48.0" height="42.0" fill="#e6d6bc" stroke="#8f6a4a" stroke-width="1"/><text x="722.0" y="1134.6" font-size="8.5" fill="#2a2420" text-anchor="middle" font-weight="700">CO₂</text><rect x="494.0" y="930.0" width="90.0" height="264.0" fill="#efe7da" stroke="#3a3128" stroke-width="1.4"/><text x="524.0" y="993.5" font-size="10" fill="#2a2420" text-anchor="middle" font-weight="500" transform="rotate(90 524.0 990.0)">bar 2.2×0.75</text><rect x="522.8" y="1059.6" width="75.6" height="132.0" fill="#dff0f6" stroke="#2a6f8f" stroke-width="1.2"/><circle cx="578.0" cy="1174.8" r="13.2" fill="none" stroke="#2a6f8f" stroke-width="1"/><circle cx="578.0" cy="1142.4" r="13.2" fill="none" stroke="#2a6f8f" stroke-width="1"/><circle cx="578.0" cy="1110.0" r="13.2" fill="none" stroke="#2a6f8f" stroke-width="1"/><circle cx="578.0" cy="1077.6" r="13.2" fill="none" stroke="#2a6f8f" stroke-width="1"/><circle cx="544.4" cy="1174.8" r="13.2" fill="none" stroke="#2a6f8f" stroke-width="1"/><circle cx="544.4" cy="1142.4" r="13.2" fill="none" stroke="#2a6f8f" stroke-width="1"/><circle cx="544.4" cy="1110.0" r="13.2" fill="none" stroke="#2a6f8f" stroke-width="1"/><circle cx="544.4" cy="1077.6" r="13.2" fill="none" stroke="#2a6f8f" stroke-width="1"/><rect x="572.0" y="930.0" width="24.0" height="127.2" fill="#c3c8cc" stroke="#3a3128" stroke-width="1.4"/><rect x="532.4" y="939.6" width="66.0" height="60.0" fill="none" stroke="#2a6f8f" stroke-width="1" stroke-dasharray="4 3"/><text x="566.0" y="972.8" font-size="9" fill="#2a6f8f" text-anchor="middle" font-weight="700">ice</text><circle cx="467.6" cy="1164.0" r="25.2" fill="#efe2c8" stroke="#3a3128" stroke-width="1.4"/><circle cx="467.6" cy="1092.0" r="25.2" fill="#efe2c8" stroke="#3a3128" stroke-width="1.4"/><circle cx="467.6" cy="1020.0" r="25.2" fill="#efe2c8" stroke="#3a3128" stroke-width="1.4"/><circle cx="467.6" cy="948.0" r="25.2" fill="#efe2c8" stroke="#3a3128" stroke-width="1.4"/><text x="632.0" y="1128.8" font-size="9" fill="#2a6f8f" text-anchor="middle" font-weight="700" transform="rotate(90 632.0 1125.6)">KEG COOLER · 8 kegs</text><g stroke="#c4442a" stroke-width="1.2"><line x1="698.0" y1="1206.0" x2="596.0" y2="1206.0"/><line x1="698.0" y1="1200.0" x2="698.0" y2="1212.0"/><line x1="596.0" y1="1200.0" x2="596.0" y2="1212.0"/></g><text x="647.0" y="1201.0" font-size="12" fill="#b23a1e" text-anchor="middle" font-weight="600">0.85</text><text x="416.0" y="1113.5" font-size="10" fill="#6a5d4e" text-anchor="middle" font-weight="500" transform="rotate(90 416.0 1110.0)">4 stools · 0.6 apart</text><g stroke="#c4442a" stroke-width="1.2"><line x1="440.0" y1="996.0000000000001" x2="302.0" y2="996.0000000000001"/><line x1="440.0" y1="990.0000000000001" x2="440.0" y2="1002.0000000000001"/><line x1="302.0" y1="990.0000000000001" x2="302.0" y2="1002.0000000000001"/></g><text x="371.0" y="991.0000000000001" font-size="12" fill="#b23a1e" text-anchor="middle" font-weight="600">aisle 1.15</text><rect x="686.0" y="756.0" width="60.0" height="150.0" fill="#d8c2a2" stroke="#3a3128" stroke-width="1.4"/><rect x="627.2" y="762.0" width="62.4" height="138.0" fill="#c69c6d" stroke="#3a3128" stroke-width="1.4"/><text x="658.4" y="834.9" font-size="9.5" fill="#2a2420" text-anchor="middle" font-weight="500" transform="rotate(90 658.4 831.6)">1.15×0.52</text><circle cx="716.0" cy="864.0" r="14.4" fill="#efe2c8" stroke="#8f6a4a" stroke-width="1"/><circle cx="716.0" cy="798.0" r="14.4" fill="#efe2c8" stroke="#8f6a4a" stroke-width="1"/><text x="596.0" y="873.5" font-size="10" fill="#2a2420" text-anchor="middle" font-weight="700" transform="rotate(90 596.0 870.0)">TABLE · 2</text><rect x="530.0" y="750.0" width="108.0" height="60.0" fill="#cfd7b2" stroke="#3a3128" stroke-width="1.4"/><text x="584.0" y="783.2" font-size="9" fill="#2a2420" text-anchor="middle" font-weight="700">server station</text><rect x="158.0" y="738.0" width="588.0" height="12.0" fill="#d8c6ac" stroke="#d8c6ac" stroke-width="1"/><rect x="446.0" y="738.0" width="78.0" height="12.0" fill="#cfe3ea" stroke="#7a9aaa" stroke-width="1"/><rect x="356.0" y="738.0" width="84.0" height="12.0" fill="#fbf7ef" stroke="#fbf7ef" stroke-width="1"/><text x="485.6" y="771.2" font-size="9" fill="#4a6070" text-anchor="middle" font-weight="500">pass</text><text x="398.0" y="771.2" font-size="9" fill="#6a5d4e" text-anchor="middle" font-weight="500">door</text><rect x="620.0" y="660.0" width="96.0" height="78.0" fill="#c3c8cc" stroke="#3a3128" stroke-width="1.4"/><text x="668.0" y="702.8" font-size="9" fill="#2a2420" text-anchor="middle" font-weight="500">non-veg prep</text><rect x="524.0" y="660.0" width="96.0" height="78.0" fill="#c3c8cc" stroke="#3a3128" stroke-width="1.4"/><text x="581.6" y="714.6" font-size="8.5" fill="#2a2420" text-anchor="middle" font-weight="500">veg / dumpling</text><text x="581.6" y="686.8" font-size="8" fill="#4a4038" text-anchor="middle" font-weight="500">+ u/c freezer</text><circle cx="542.0" cy="696.0" r="14.4" fill="#e9e9e9" stroke="#6d7276" stroke-width="1"/><rect x="446.0" y="660.0" width="78.0" height="78.0" fill="#c3c8cc" stroke="#3a3128" stroke-width="1.4"/><text x="485.6" y="702.8" font-size="9" fill="#2a2420" text-anchor="middle" font-weight="500">pass</text><rect x="310.4" y="690.0" width="39.6" height="48.0" fill="#c3c8cc" stroke="#3a3128" stroke-width="1.4"/><text x="330.2" y="717.0" font-size="8.5" fill="#2a2420" text-anchor="middle" font-weight="700">HW</text><path d="M304.4 732.0 A56.4 56.4 0 0 0 248.0 675.6" fill="none" stroke="#2a6f8f" stroke-width="1" stroke-dasharray="3 3"/><line x1="248.0" y1="732.0" x2="304.4" y2="732.0" stroke="#2a6f8f" stroke-width="1" stroke-dasharray="3 3"/><path d="M304.4 618.0 A56.4 56.4 0 0 1 248.0 674.4" fill="none" stroke="#2a6f8f" stroke-width="1" stroke-dasharray="3 3"/><line x1="248.0" y1="618.0" x2="304.4" y2="618.0" stroke="#2a6f8f" stroke-width="1" stroke-dasharray="3 3"/><line x1="356.0" y1="738.0" x2="356.0" y2="654.0" stroke="#6a5d4e" stroke-width="1" stroke-dasharray="3 3"/><rect x="710.0" y="540.0" width="36.0" height="108.0" fill="none" stroke="#6d7276" stroke-width="1" stroke-dasharray="4 3"/><text x="662.0" y="597.2" font-size="9" fill="#6a5d4e" text-anchor="middle" font-weight="700">wok cook</text><text x="662.0" y="618.6" font-size="8.5" fill="#6a5d4e" text-anchor="middle" font-weight="500">clear space</text><text x="728.0" y="596.8" font-size="8" fill="#6a5d4e" text-anchor="middle" font-weight="500" transform="rotate(90 728.0 594.0)">sauce shelf</text><rect x="602.0" y="450.0" width="144.0" height="84.0" fill="#9aa0a5" stroke="#3a3128" stroke-width="1.4"/><text x="674.0" y="495.3" font-size="9.5" fill="#fff" text-anchor="middle" font-weight="700">wok ×2</text><rect x="524.0" y="450.0" width="72.0" height="84.0" fill="#9aa0a5" stroke="#3a3128" stroke-width="1.4"/><text x="560.0" y="495.3" font-size="9.5" fill="#fff" text-anchor="middle" font-weight="700">steamer</text><rect x="446.0" y="450.0" width="72.0" height="84.0" fill="#9aa0a5" stroke="#3a3128" stroke-width="1.4"/><text x="482.0" y="495.3" font-size="9.5" fill="#fff" text-anchor="middle" font-weight="700">fryer ×2</text><rect x="368.0" y="450.0" width="72.0" height="84.0" fill="#9aa0a5" stroke="#3a3128" stroke-width="1.4"/><text x="404.0" y="495.3" font-size="9.5" fill="#fff" text-anchor="middle" font-weight="700">stock ×2</text><rect x="356.0" y="452.4" width="387.6" height="111.6" fill="none" stroke="#c4442a" stroke-width="1.3" stroke-dasharray="8 4"/><text x="548.0" y="579.3" font-size="9.5" fill="#b23a1e" text-anchor="middle" font-weight="500">canopy hood 3.25×0.95 (bottom 2.05 m)</text><rect x="158.0" y="618.0" width="90.0" height="114.0" fill="#c3c8cc" stroke="#3a3128" stroke-width="1.4"/><text x="203.6" y="678.6" font-size="8.5" fill="#2a2420" text-anchor="middle" font-weight="500" transform="rotate(90 203.6 675.6)">2-door reach-in 1.0</text><rect x="158.0" y="546.0" width="78.0" height="72.0" fill="#c3c8cc" stroke="#3a3128" stroke-width="1.4"/><text x="197.6" y="585.0" font-size="8.5" fill="#2a2420" text-anchor="middle" font-weight="500" transform="rotate(90 197.6 582.0)">dishwasher</text><rect x="158.0" y="450.0" width="78.0" height="96.0" fill="#c3c8cc" stroke="#3a3128" stroke-width="1.4"/><text x="197.6" y="501.0" font-size="8.5" fill="#2a2420" text-anchor="middle" font-weight="500" transform="rotate(90 197.6 498.0)">2-bowl sink</text><rect x="338.0" y="552.0" width="72.0" height="96.0" fill="none" stroke="#2a6f8f" stroke-width="1.3" stroke-dasharray="5 3"/><text x="374.0" y="603.2" font-size="9" fill="#2a6f8f" text-anchor="middle" font-weight="700">hatch</text><text x="452.0" y="627.9" font-size="11" fill="#2a2420" text-anchor="middle" font-weight="700">KITCHEN 4.9 × 2.4 · ceiling 2.7</text><text x="506.0" y="648.8" font-size="9" fill="#2a6f8f" text-anchor="middle" font-weight="500">deck above (+2.7 m)</text><rect x="770.0" y="1176.0" width="72.0" height="72.0" fill="#e9e9e9" stroke="#3a3128" stroke-width="1.4"/><text x="806.0" y="1215.0" font-size="8.5" fill="#2a2420" text-anchor="middle" font-weight="500">empties</text><rect x="770.0" y="1044.0" width="84.0" height="108.0" fill="#d9c7a8" stroke="#8f5634" stroke-width="1.4"/><text x="812.0" y="1101.2" font-size="9" fill="#2a2420" text-anchor="middle" font-weight="500">bins</text><rect x="776.0" y="936.0" width="84.0" height="96.0" fill="#f3d6cf" stroke="#b23a1e" stroke-width="1.2"/><text x="818.0" y="987.0" font-size="8.5" fill="#b23a1e" text-anchor="middle" font-weight="700" transform="rotate(90 818.0 984.0)">LPG 4×19 kg</text><line x1="777.2" y1="942.0" x2="777.2" y2="492.0" stroke="#b8862a" stroke-width="2"/><line x1="777.2" y1="492.0" x2="746.0" y2="492.0" stroke="#b8862a" stroke-width="2"/><text x="800.0" y="789.0" font-size="8.5" fill="#8a6420" text-anchor="middle" font-weight="500" transform="rotate(90 800.0 786.0)">gas line</text><rect x="770.0" y="1356.0" width="74.4" height="108.0" fill="#d6dde2" stroke="#3a4a56" stroke-width="1.3"/><text x="807.2" y="1413.0" font-size="8.5" fill="#2a3a46" text-anchor="middle" font-weight="700" transform="rotate(90 807.2 1410.0)">power backup</text><rect x="770.0" y="1296.0" width="18.0" height="42.0" fill="#6d7276" stroke="#2a3a46" stroke-width="1"/><rect x="738.8" y="1372.8" width="7.2" height="79.2" fill="#c9993f" stroke="#8a6420" stroke-width="1.2"/><text x="731.6" y="1470.4" font-size="8" fill="#8a6420" text-anchor="end" font-weight="500">meter behind hinged portrait</text><rect x="770.0" y="1338.0" width="36.0" height="96.0" fill="none" stroke="#6a5d4e" stroke-width="1" stroke-dasharray="3 2"/><rect x="770.0" y="1218.0" width="36.0" height="96.0" fill="none" stroke="#6a5d4e" stroke-width="1" stroke-dasharray="3 2"/><text x="836.0" y="1268.8" font-size="8" fill="#6a5d4e" text-anchor="middle" font-weight="500" transform="rotate(90 836.0 1266.0)">AC above</text><rect x="584.0" y="426.0" width="60.0" height="24.0" fill="#f3e0dc" stroke="#c4442a" stroke-width="1.3" stroke-dasharray="6 3"/><rect x="584.0" y="378.0" width="240.0" height="48.0" fill="#f3e0dc" stroke="#c4442a" stroke-width="1.3" stroke-dasharray="6 3"/><rect x="776.0" y="378.0" width="48.0" height="114.0" fill="#f3e0dc" stroke="#c4442a" stroke-width="1.3" stroke-dasharray="6 3"/><rect x="767.6" y="492.0" width="74.4" height="120.0" fill="#e8c9c2" stroke="#b23a1e" stroke-width="1.4"/><text x="806.0" y="555.1" font-size="9" fill="#b23a1e" text-anchor="middle" font-weight="700">ESP</text><circle cx="800.0" cy="636.0" r="21.6" fill="#f3e0dc" stroke="#c4442a" stroke-width="1.3"/><text x="800.0" y="638.8" font-size="8" fill="#b23a1e" text-anchor="middle" font-weight="500">fan</text><rect x="776.0" y="660.0" width="84.0" height="24.0" fill="#f3e0dc" stroke="#c4442a" stroke-width="1.3" stroke-dasharray="6 3"/><path d="M860.0000000000001 672.0 l-26 0 m0 0 l9 -7 m-9 7 l9 7" stroke="#b23a1e" stroke-width="2" fill="none"/><text x="878.0" y="729.1" font-size="9" fill="#b23a1e" text-anchor="end" font-weight="700">smoke out at 2.6 m</text><text x="524.0" y="363.3" font-size="9.5" fill="#b23a1e" text-anchor="middle" font-weight="500">kitchen exhaust: out the back, right along the wall, round the corner</text><g stroke="#c4442a" stroke-width="1.2"><line x1="158.0" y1="426.0000000000001" x2="746.0" y2="426.0000000000001"/><line x1="158.0" y1="420.0000000000001" x2="158.0" y2="432.0000000000001"/><line x1="746.0" y1="420.0000000000001" x2="746.0" y2="432.0000000000001"/></g><text x="452.0" y="421.0000000000001" font-size="12" fill="#b23a1e" text-anchor="middle" font-weight="600">4.90 (inside)</text><g stroke="#c4442a" stroke-width="1.2"><line x1="87.99999999999997" y1="1506.0" x2="87.99999999999997" y2="450.0"/><line x1="81.99999999999997" y1="1506.0" x2="93.99999999999997" y2="1506.0"/><line x1="81.99999999999997" y1="450.0" x2="93.99999999999997" y2="450.0"/></g><text x="81.99999999999997" y="978.0" font-size="12" fill="#b23a1e" text-anchor="middle" font-weight="600" transform="rotate(-90 81.99999999999997 978.0)">8.80 (inside)</text><g stroke="#c4442a" stroke-width="1.2"><line x1="1052.0" y1="1506.0" x2="1052.0" y2="1236.0"/><line x1="1046.0" y1="1506.0" x2="1058.0" y2="1506.0"/><line x1="1046.0" y1="1236.0" x2="1058.0" y2="1236.0"/></g><text x="1046.0" y="1371.0" font-size="12" fill="#b23a1e" text-anchor="middle" font-weight="600" transform="rotate(-90 1046.0 1371.0)">2.25</text><g stroke="#c4442a" stroke-width="1.2"><line x1="1052.0" y1="1230.0" x2="1052.0" y2="912.0000000000001"/><line x1="1046.0" y1="1230.0" x2="1058.0" y2="1230.0"/><line x1="1046.0" y1="912.0000000000001" x2="1058.0" y2="912.0000000000001"/></g><text x="1046.0" y="1071.0" font-size="12" fill="#b23a1e" text-anchor="middle" font-weight="600" transform="rotate(-90 1046.0 1071.0)">bar 2.65</text><g stroke="#c4442a" stroke-width="1.2"><line x1="1052.0" y1="738.0000000000001" x2="1052.0" y2="450.0"/><line x1="1046.0" y1="738.0000000000001" x2="1058.0" y2="738.0000000000001"/><line x1="1046.0" y1="450.0" x2="1058.0" y2="450.0"/></g><text x="1046.0" y="594.0" font-size="12" fill="#b23a1e" text-anchor="middle" font-weight="600" transform="rotate(-90 1046.0 594.0)">kitchen 2.40</text><g stroke="#c4442a" stroke-width="1.2"><line x1="115.99999999999997" y1="1488.0" x2="115.99999999999997" y2="1236.0"/><line x1="109.99999999999997" y1="1488.0" x2="121.99999999999997" y2="1488.0"/><line x1="109.99999999999997" y1="1236.0" x2="121.99999999999997" y2="1236.0"/></g><text x="109.99999999999997" y="1362.0" font-size="12" fill="#b23a1e" text-anchor="middle" font-weight="600" transform="rotate(-90 109.99999999999997 1362.0)">2.10</text><g stroke="#c4442a" stroke-width="1.2"><line x1="115.99999999999997" y1="1218.0" x2="115.99999999999997" y2="1080.0"/><line x1="109.99999999999997" y1="1218.0" x2="121.99999999999997" y2="1218.0"/><line x1="109.99999999999997" y1="1080.0" x2="121.99999999999997" y2="1080.0"/></g><text x="109.99999999999997" y="1149.0" font-size="12" fill="#b23a1e" text-anchor="middle" font-weight="600" transform="rotate(-90 109.99999999999997 1149.0)">1.15</text><g stroke="#c4442a" stroke-width="1.2"><line x1="115.99999999999997" y1="1064.4" x2="115.99999999999997" y2="974.4000000000001"/><line x1="109.99999999999997" y1="1064.4" x2="121.99999999999997" y2="1064.4"/><line x1="109.99999999999997" y1="974.4000000000001" x2="121.99999999999997" y2="974.4000000000001"/></g><text x="109.99999999999997" y="1019.4000000000001" font-size="12" fill="#b23a1e" text-anchor="middle" font-weight="600" transform="rotate(-90 109.99999999999997 1019.4000000000001)">0.75</text><g stroke="#c4442a" stroke-width="1.2"><line x1="115.99999999999997" y1="962.4000000000001" x2="115.99999999999997" y2="750.0000000000001"/><line x1="109.99999999999997" y1="962.4000000000001" x2="121.99999999999997" y2="962.4000000000001"/><line x1="109.99999999999997" y1="750.0000000000001" x2="121.99999999999997" y2="750.0000000000001"/></g><text x="109.99999999999997" y="856.2" font-size="12" fill="#b23a1e" text-anchor="middle" font-weight="600" transform="rotate(-90 109.99999999999997 856.2)">WC 1.77</text><rect x="1108" y="136" width="310" height="479" fill="#fffdf8" stroke="#d9cbb3"/><text x="1126" y="162" font-size="15" font-weight="700" fill="#2a2420">COVERS</text><text x="1126" y="192" font-size="14" fill="#2a2420">Bar stools</text><text x="1400" y="192" font-size="14" text-anchor="end" fill="#2a2420">4</text><text x="1126" y="222" font-size="14" fill="#2a2420">Window tables, right</text><text x="1400" y="222" font-size="14" text-anchor="end" fill="#2a2420">6</text><text x="1126" y="252" font-size="14" fill="#2a2420">Window booth, left</text><text x="1400" y="252" font-size="14" text-anchor="end" fill="#2a2420">6</text><text x="1126" y="282" font-size="14" fill="#2a2420">Bench facing the bar</text><text x="1400" y="282" font-size="14" text-anchor="end" fill="#2a2420">2</text><text x="1126" y="312" font-size="14" fill="#2a2420">Table by the pass</text><text x="1400" y="312" font-size="14" text-anchor="end" fill="#2a2420">2</text><text x="1126" y="342" font-size="14" fill="#2a2420">Beer garden, 5.3 × 2.0 m</text><text x="1400" y="342" font-size="14" text-anchor="end" fill="#2a2420">8</text><line x1="1126" y1="352" x2="1400" y2="352" stroke="#2a2420"/><text x="1126" y="372" font-size="14" fill="#2a2420" font-weight="700">Total</text><text x="1400" y="372" font-size="14" text-anchor="end" fill="#2a2420" font-weight="700">28</text><text x="1126" y="410" font-size="12.5" fill="#6a5d4e">One double-height room, no loft.</text><text x="1126" y="429" font-size="12.5" fill="#6a5d4e">Kitchen sized to the 22-dish menu;</text><text x="1126" y="448" font-size="12.5" fill="#6a5d4e">fridge by the door, wok side kept clear.</text><text x="1126" y="467" font-size="12.5" fill="#6a5d4e">Power backup on the right side, front end;</text><text x="1126" y="486" font-size="12.5" fill="#6a5d4e">meter stays inside behind a portrait.</text><text x="1126" y="505" font-size="12.5" fill="#6a5d4e">Kegs under the bar; glasswasher and</text><text x="1126" y="524" font-size="12.5" fill="#6a5d4e">mixer cooler built into the back bar.</text><text x="1126" y="543" font-size="12.5" fill="#6a5d4e">Gas, bins, AC and the kitchen exhaust in</text><text x="1126" y="562" font-size="12.5" fill="#6a5d4e">a 0.8 m strip on the right, behind bollards;</text><text x="1126" y="581" font-size="12.5" fill="#6a5d4e">car pathway beyond, parking behind.</text><text x="1126" y="600" font-size="12.5" fill="#6a5d4e">Exhaust shown dashed (at 2.35–2.75 m).</text>
<g transform="translate(40,1956)"><rect width="120" height="10" fill="#2a2420"/><rect x="120" width="120" height="10" fill="none" stroke="#2a2420"/><text y="30" font-size="13" fill="#2a2420">0</text><text x="120" y="30" font-size="13" text-anchor="middle" fill="#2a2420">1 m</text><text x="240" y="30" font-size="13" text-anchor="middle" fill="#2a2420">2 m</text>
<text x="300" y="10" font-size="13" fill="#6a5d4e">All dimensions in metres. Left/right as you walk in from the road (road at the bottom). Dashed = overhead beams, hood, hatch and exhaust duct.</text></g>
</svg>