<svg xmlns="http://www.w3.org/2000/svg" width="1372" height="2148" viewBox="0 0 1372 2148" font-family="IBM Plex Sans, Helvetica, Arial, sans-serif">
<rect width="100%" height="100%" fill="#fbf7ef"/>
<text x="40" y="52" font-size="30" font-weight="700" fill="#2a2420">Ground floor plan · no loft</text>
<text x="40" y="84" font-size="15" fill="#6a5d4e">Betalbatim pub · Concept 24 · 4.5 × 10.5 m shell (inside) · 20 covers inside + 8 in the garden · 28 covers in all</text>
<rect x="208.0" y="1645.2" width="588.0" height="232.8" rx="0" fill="#efe6d2" stroke="#b9a989" stroke-width="1" opacity="1"/><rect x="774.4" y="1858.8" width="19.2" height="19.2" rx="0" fill="#8f5634" stroke="#8f5634" stroke-width="1" opacity="1"/><rect x="210.4" y="1858.8" width="19.2" height="19.2" rx="0" fill="#8f5634" stroke="#8f5634" stroke-width="1" opacity="1"/><rect x="208.0" y="1650.0" width="588.0" height="19.2" rx="0" fill="none" stroke="#8f5634" stroke-width="1" opacity="1" stroke-dasharray="4 3"/><rect x="208.0" y="1858.8" width="588.0" height="19.2" rx="0" fill="none" stroke="#8f5634" stroke-width="1" opacity="1" stroke-dasharray="4 3"/><rect x="624.4" y="1695.6" width="91.2" height="144.0" rx="0" fill="#e8d3b0" stroke="#3a3128" stroke-width="1.4" opacity="1"/><text x="670.0" y="1771.5" font-size="11" fill="#2a2420" text-anchor="middle" font-weight="500" transform="rotate(90 670.0 1767.6)">1.2×0.76</text><rect x="722.8" y="1695.6" width="43.2" height="144.0" rx="0" fill="#f3e8d6" stroke="#3a3128" stroke-width="1.4" opacity="1"/><rect x="762.4" y="1695.6" width="4.8" height="144.0" rx="0" fill="#8f5634" stroke="#8f5634" stroke-width="1" opacity="1"/><rect x="574.0" y="1695.6" width="43.2" height="144.0" rx="0" fill="#f3e8d6" stroke="#3a3128" stroke-width="1.4" opacity="1"/><rect x="572.8" y="1695.6" width="4.8" height="144.0" rx="0" fill="#8f5634" stroke="#8f5634" stroke-width="1" opacity="1"/><rect x="288.4" y="1695.6" width="91.2" height="144.0" rx="0" fill="#e8d3b0" stroke="#3a3128" stroke-width="1.4" opacity="1"/><text x="334.0" y="1771.5" font-size="11" fill="#2a2420" text-anchor="middle" font-weight="500" transform="rotate(90 334.0 1767.6)">1.2×0.76</text><rect x="386.8" y="1695.6" width="43.2" height="144.0" rx="0" fill="#f3e8d6" stroke="#3a3128" stroke-width="1.4" opacity="1"/><rect x="426.4" y="1695.6" width="4.8" height="144.0" rx="0" fill="#8f5634" stroke="#8f5634" stroke-width="1" opacity="1"/><rect x="238.0" y="1695.6" width="43.2" height="144.0" rx="0" fill="#f3e8d6" stroke="#3a3128" stroke-width="1.4" opacity="1"/><rect x="236.8" y="1695.6" width="4.8" height="144.0" rx="0" fill="#8f5634" stroke="#8f5634" stroke-width="1" opacity="1"/><rect x="574.0" y="1880.4" width="222.0" height="21.6" rx="0" fill="#c97a5a" stroke="#8f4a32" stroke-width="1" opacity="1"/><rect x="208.0" y="1880.4" width="222.0" height="21.6" rx="0" fill="#c97a5a" stroke="#8f4a32" stroke-width="1" opacity="1"/><text x="502.0" y="1936.4" font-size="12.5" fill="#6a5d4e" text-anchor="middle" font-weight="500">BEER GARDEN · 4.9 × 2.0 m · 9.5 m² · 8 covers · pergola on 2 posts + facade ledger · PVC curtains on 3 sides</text><g stroke="#c4442a" stroke-width="1.2"><line x1="572.8" y1="1872.0" x2="431.20000000000005" y2="1872.0"/><line x1="572.8" y1="1866.0" x2="572.8" y2="1878.0"/><line x1="431.20000000000005" y1="1866.0" x2="431.20000000000005" y2="1878.0"/></g><text x="502.0" y="1867.0" font-size="12.5" fill="#b23a1e" text-anchor="middle" font-weight="600">path 1.18</text><g stroke="#c4442a" stroke-width="1.2"><line x1="820.0" y1="1878.0" x2="820.0" y2="1645.2"/><line x1="814.0" y1="1878.0" x2="826.0" y2="1878.0"/><line x1="814.0" y1="1645.2" x2="826.0" y2="1645.2"/></g><text x="814.0" y="1761.6" font-size="12.5" fill="#b23a1e" text-anchor="middle" font-weight="600" transform="rotate(-90 814.0 1761.6)">2.00</text><g stroke="#c4442a" stroke-width="1.2"><line x1="796.0" y1="1968.0" x2="207.99999999999997" y2="1968.0"/><line x1="796.0" y1="1962.0" x2="796.0" y2="1974.0"/><line x1="207.99999999999997" y1="1962.0" x2="207.99999999999997" y2="1974.0"/></g><text x="502.0" y="1963.0" font-size="12.5" fill="#b23a1e" text-anchor="middle" font-weight="600">4.90 (in line with the side walls)</text><rect x="232.0" y="1638.0" width="540.0" height="7.2" rx="0" fill="#9fb4c2" stroke="#4a6070" stroke-width="1" opacity="1"/><text x="502.0" y="1685.9" font-size="10" fill="#4a6070" text-anchor="middle" font-weight="500">glazed shopfront · doors open outward</text><rect x="772.0" y="354.0" width="24.0" height="1284.0" rx="0" fill="#4a4038" stroke="#4a4038" stroke-width="1" opacity="1"/><rect x="208.0" y="354.0" width="24.0" height="1284.0" rx="0" fill="#4a4038" stroke="#4a4038" stroke-width="1" opacity="1"/><rect x="208.0" y="354.0" width="588.0" height="24.0" rx="0" fill="#4a4038" stroke="#4a4038" stroke-width="1" opacity="1"/><rect x="744.4" y="1044.0" width="27.6" height="36.0" rx="0" fill="#4a4038" stroke="#4a4038" stroke-width="1" opacity="1"/><text x="886.0" y="1065.8" font-size="11" fill="#4a4038" text-anchor="middle" font-weight="700">P1 pillar 0.30×0.23</text><rect x="744.4" y="804.0" width="27.6" height="36.0" rx="0" fill="#4a4038" stroke="#4a4038" stroke-width="1" opacity="1"/><text x="886.0" y="825.9" font-size="11" fill="#4a4038" text-anchor="middle" font-weight="700">P2 pillar 0.30×0.23</text><rect x="338.2" y="378.0" width="27.6" height="1260.0" rx="0" fill="none" stroke="#8a7a62" stroke-width="1" opacity="1" stroke-dasharray="6 4"/><rect x="232.0" y="1047.0" width="540.0" height="30.0" rx="0" fill="none" stroke="#8a7a62" stroke-width="1" opacity="1" stroke-dasharray="6 4"/><rect x="365.8" y="807.0" width="406.2" height="30.0" rx="0" fill="none" stroke="#8a7a62" stroke-width="1" opacity="1" stroke-dasharray="6 4"/><rect x="469.0" y="837.0" width="18.0" height="210.0" rx="0" fill="none" stroke="#8a7a62" stroke-width="1" opacity="1" stroke-dasharray="6 4"/><rect x="712.0" y="1368.0" width="60.0" height="252.0" rx="0" fill="#d8c2a2" stroke="#3a3128" stroke-width="1.4" opacity="1"/><text x="742.0" y="1497.5" font-size="10" fill="#2a2420" text-anchor="middle" font-weight="500" transform="rotate(90 742.0 1494.0)">banquette 2.1×0.5</text><rect x="628.0" y="1494.0" width="84.0" height="126.0" rx="0" fill="#c69c6d" stroke="#3a3128" stroke-width="1.4" opacity="1"/><text x="670.0" y="1560.5" font-size="10" fill="#2a2420" text-anchor="middle" font-weight="500" transform="rotate(90 670.0 1557.0)">1.05×0.7</text><rect x="628.0" y="1368.0" width="84.0" height="72.0" rx="0" fill="#c69c6d" stroke="#3a3128" stroke-width="1.4" opacity="1"/><text x="670.0" y="1407.5" font-size="10" fill="#2a2420" text-anchor="middle" font-weight="500" transform="rotate(90 670.0 1404.0)">0.6×0.7</text><rect x="562.0" y="1561.2" width="52.8" height="52.8" rx="0" fill="#efe2c8" stroke="#3a3128" stroke-width="1.4" opacity="1"/><rect x="562.0" y="1500.0" width="52.8" height="52.8" rx="0" fill="#efe2c8" stroke="#3a3128" stroke-width="1.4" opacity="1"/><rect x="562.0" y="1377.6" width="52.8" height="52.8" rx="0" fill="#efe2c8" stroke="#3a3128" stroke-width="1.4" opacity="1"/><g stroke="#c4442a" stroke-width="1.2"><line x1="622.0" y1="1494.0000000000002" x2="622.0" y2="1440.0"/><line x1="616.0" y1="1494.0000000000002" x2="628.0" y2="1494.0000000000002"/><line x1="616.0" y1="1440.0" x2="628.0" y2="1440.0"/></g><text x="616.0" y="1467.0" font-size="12.5" fill="#b23a1e" text-anchor="middle" font-weight="600" transform="rotate(-90 616.0 1467.0)">0.45</text><text x="652.0" y="1348.2" font-size="12" fill="#2a2420" text-anchor="middle" font-weight="700">WINDOW TABLES · 4 + 2</text><rect x="232.0" y="1368.0" width="60.0" height="252.0" rx="0" fill="#d8c2a2" stroke="#3a3128" stroke-width="1.4" opacity="1"/><text x="262.0" y="1497.5" font-size="10" fill="#2a2420" text-anchor="middle" font-weight="500" transform="rotate(90 262.0 1494.0)">banquette 2.1×0.5</text><rect x="292.0" y="1494.0" width="72.0" height="126.0" rx="0" fill="#c69c6d" stroke="#3a3128" stroke-width="1.4" opacity="1"/><text x="328.0" y="1560.5" font-size="10" fill="#2a2420" text-anchor="middle" font-weight="500" transform="rotate(90 328.0 1557.0)">1.05×0.6</text><rect x="292.0" y="1368.0" width="72.0" height="72.0" rx="0" fill="#c69c6d" stroke="#3a3128" stroke-width="1.4" opacity="1"/><text x="328.0" y="1407.5" font-size="10" fill="#2a2420" text-anchor="middle" font-weight="500" transform="rotate(90 328.0 1404.0)">0.6×0.6</text><rect x="364.0" y="1368.0" width="54.0" height="252.0" rx="0" fill="#d8c2a2" stroke="#3a3128" stroke-width="1.4" opacity="1"/><rect x="408.4" y="1368.0" width="9.6" height="252.0" rx="0" fill="#8f6a4a" stroke="#8f6a4a" stroke-width="1" opacity="1"/><text x="386.8" y="1497.5" font-size="10" fill="#2a2420" text-anchor="middle" font-weight="500" transform="rotate(90 386.8 1494.0)">banquette 2.1×0.45</text><text x="352.0" y="1348.2" font-size="12" fill="#2a2420" text-anchor="middle" font-weight="700">BOOTH · 4 + 2</text><g stroke="#c4442a" stroke-width="1.2"><line x1="562.0" y1="1464.0000000000002" x2="418.0" y2="1464.0000000000002"/><line x1="562.0" y1="1458.0000000000002" x2="562.0" y2="1470.0000000000002"/><line x1="418.0" y1="1458.0000000000002" x2="418.0" y2="1470.0000000000002"/></g><text x="490.0" y="1459.0000000000002" font-size="12.5" fill="#b23a1e" text-anchor="middle" font-weight="600">entry 1.20 clear</text><rect x="232.0" y="1086.0" width="54.0" height="240.0" rx="0" fill="#d8c2a2" stroke="#3a3128" stroke-width="1.4" opacity="1"/><rect x="286.0" y="1212.0" width="54.0" height="108.0" rx="0" fill="#c69c6d" stroke="#3a3128" stroke-width="1.4" opacity="1"/><text x="313.6" y="1269.5" font-size="10" fill="#2a2420" text-anchor="middle" font-weight="500" transform="rotate(90 313.6 1266.0)">0.9×0.45</text><rect x="286.0" y="1086.0" width="54.0" height="108.0" rx="0" fill="#c69c6d" stroke="#3a3128" stroke-width="1.4" opacity="1"/><text x="313.6" y="1143.5" font-size="10" fill="#2a2420" text-anchor="middle" font-weight="500" transform="rotate(90 313.6 1140.0)">0.9×0.45</text><circle cx="259.6" cy="1296.0" r="15.6" fill="#efe2c8" stroke="#8f6a4a" stroke-width="1"/><circle cx="259.6" cy="1236.0" r="15.6" fill="#efe2c8" stroke="#8f6a4a" stroke-width="1"/><circle cx="259.6" cy="1170.0" r="15.6" fill="#efe2c8" stroke="#8f6a4a" stroke-width="1"/><circle cx="259.6" cy="1110.0" r="15.6" fill="#efe2c8" stroke="#8f6a4a" stroke-width="1"/><text x="370.0" y="1210.2" font-size="12" fill="#2a2420" text-anchor="middle" font-weight="700" transform="rotate(90 370.0 1206.0)">BENCH · 2 + 2</text><g stroke="#c4442a" stroke-width="1.2"><line x1="466.0" y1="1118.4" x2="340.0" y2="1118.4"/><line x1="466.0" y1="1112.4" x2="466.0" y2="1124.4"/><line x1="340.0" y1="1112.4" x2="340.0" y2="1124.4"/></g><text x="403.0" y="1113.4" font-size="12.5" fill="#b23a1e" text-anchor="middle" font-weight="600">aisle 1.05</text><rect x="724.0" y="1002.0" width="48.0" height="360.0" rx="0" fill="#cfd7b2" stroke="#3a3128" stroke-width="1.4" opacity="1"/><text x="748.0" y="1185.9" font-size="11" fill="#2a2420" text-anchor="middle" font-weight="500" transform="rotate(90 748.0 1182.0)">back bar 3.0×0.4</text><rect x="520.0" y="1062.0" width="90.0" height="264.0" rx="0" fill="#efe7da" stroke="#3a3128" stroke-width="1.4" opacity="1"/><text x="564.4" y="1197.8" font-size="11" fill="#2a2420" text-anchor="middle" font-weight="500" transform="rotate(90 564.4 1194.0)">bar 2.2×0.75 · top 1.04</text><rect x="610.0" y="1062.0" width="12.0" height="264.0" rx="0" fill="#c3c8cc" stroke="#3a3128" stroke-width="1.4" opacity="1"/><rect x="558.4" y="1071.6" width="66.0" height="60.0" rx="0" fill="none" stroke="#2a6f8f" stroke-width="1.2" opacity="1" stroke-dasharray="4 3"/><text x="592.0" y="1105.1" font-size="10" fill="#2a6f8f" text-anchor="middle" font-weight="700">ice</text><g stroke="#c4442a" stroke-width="1.2"><line x1="724.0" y1="1260.0" x2="622.0" y2="1260.0"/><line x1="724.0" y1="1254.0" x2="724.0" y2="1266.0"/><line x1="622.0" y1="1254.0" x2="622.0" y2="1266.0"/></g><text x="673.0" y="1255.0" font-size="12.5" fill="#b23a1e" text-anchor="middle" font-weight="600">0.85</text><rect x="724.0" y="1297.2" width="48.0" height="57.6" rx="0" fill="#e6d6bc" stroke="#3a3128" stroke-width="1.4" opacity="1"/><text x="748.0" y="1329.2" font-size="9" fill="#2a2420" text-anchor="middle" font-weight="700">POS</text><circle cx="493.6" cy="1284.0" r="25.2" fill="#efe2c8" stroke="#3a3128" stroke-width="1.4"/><circle cx="493.6" cy="1218.0" r="25.2" fill="#efe2c8" stroke="#3a3128" stroke-width="1.4"/><circle cx="493.6" cy="1152.0" r="25.2" fill="#efe2c8" stroke="#3a3128" stroke-width="1.4"/><circle cx="493.6" cy="1086.0" r="25.2" fill="#efe2c8" stroke="#3a3128" stroke-width="1.4"/><text x="448.0" y="1281.8" font-size="11" fill="#6a5d4e" text-anchor="middle" font-weight="500" transform="rotate(90 448.0 1278.0)">4 stools</text><rect x="664.0" y="846.0" width="108.0" height="144.0" rx="0" fill="#c3c8cc" stroke="#3a3128" stroke-width="1.4" opacity="1"/><text x="718.0" y="921.9" font-size="11" fill="#2a2420" text-anchor="middle" font-weight="500" transform="rotate(90 718.0 918.0)">keg cooler</text><text x="688.0" y="921.9" font-size="11" fill="#2a2420" text-anchor="middle" font-weight="500" transform="rotate(90 688.0 918.0)">1.2×0.9</text><rect x="754.0" y="744.0" width="18.0" height="50.4" rx="0" fill="#6d7276" stroke="#3a3128" stroke-width="1.4" opacity="1"/><text x="712.0" y="771.5" font-size="10" fill="#4a4038" text-anchor="middle" font-weight="500">DB + fire panel</text><rect x="232.0" y="1050.0" width="144.0" height="9.6" rx="0" fill="#d8c6ac" stroke="#d8c6ac" stroke-width="1" opacity="1"/><rect x="232.0" y="960.0" width="144.0" height="90.0" rx="0" fill="#e9efe4" stroke="#8a9a7a" stroke-width="1" opacity="1"/><circle cx="268.0" cy="1005.0" r="30.0" fill="#ffffff" stroke="#3a3128" stroke-width="1.4"/><text x="331.6" y="1026.9" font-size="9.5" fill="#2a2420" text-anchor="middle" font-weight="700">HAND-WASH</text><text x="331.6" y="990.9" font-size="9.5" fill="#2a2420" text-anchor="middle" font-weight="700">NICHE 1.2×0.75</text><circle cx="352.0" cy="1069.2" r="9.0" fill="#c8231b" stroke="#c8231b" stroke-width="1"/><circle cx="328.0" cy="1069.2" r="9.0" fill="#c8231b" stroke="#c8231b" stroke-width="1"/><rect x="232.0" y="948.0" width="144.0" height="12.0" rx="0" fill="#d8c6ac" stroke="#d8c6ac" stroke-width="1" opacity="1"/><rect x="364.0" y="900.0" width="12.0" height="48.0" rx="0" fill="#d8c6ac" stroke="#d8c6ac" stroke-width="1" opacity="1"/><rect x="364.0" y="738.0" width="12.0" height="78.0" rx="0" fill="#d8c6ac" stroke="#d8c6ac" stroke-width="1" opacity="1"/><rect x="232.0" y="738.0" width="132.0" height="210.0" rx="0" fill="#e9efe4" stroke="#8a9a7a" stroke-width="1" opacity="1"/><line x1="370.0" y1="900.0" x2="444.4" y2="840.0" stroke="#2a2420" stroke-width="1" stroke-dasharray="3 3"/><text x="298.0" y="847.5" font-size="11" fill="#2a2420" text-anchor="middle" font-weight="700">WC 1.1×1.75</text><rect x="242.8" y="741.6" width="38.4" height="74.4" rx="0" fill="#ffffff" stroke="#3a3128" stroke-width="1.4" opacity="1"/><rect x="232.0" y="897.6" width="28.8" height="36.0" rx="0" fill="#ffffff" stroke="#3a3128" stroke-width="1.4" opacity="1"/><rect x="232.0" y="866.4" width="66.0" height="3.6" rx="0" fill="#8f5634" stroke="#8f5634" stroke-width="1" opacity="1"/><rect x="232.0" y="726.0" width="540.0" height="12.0" rx="0" fill="#d8c6ac" stroke="#d8c6ac" stroke-width="1" opacity="1"/><rect x="484.0" y="726.0" width="114.0" height="12.0" rx="0" fill="#cfe3ea" stroke="#7a9aaa" stroke-width="1" opacity="1"/><rect x="382.0" y="726.0" width="90.0" height="12.0" rx="0" fill="#fbf7ef" stroke="#fbf7ef" stroke-width="1" opacity="1"/><text x="541.6" y="755.9" font-size="10" fill="#4a6070" text-anchor="middle" font-weight="500">pass</text><text x="427.6" y="755.9" font-size="10" fill="#6a5d4e" text-anchor="middle" font-weight="500">door</text><rect x="682.0" y="576.0" width="90.0" height="144.0" rx="0" fill="#c3c8cc" stroke="#3a3128" stroke-width="1.4" opacity="1"/><text x="726.4" y="651.5" font-size="10" fill="#2a2420" text-anchor="middle" font-weight="500" transform="rotate(90 726.4 648.0)">2-door reach-in</text><rect x="688.0" y="468.0" width="84.0" height="96.0" rx="0" fill="#c3c8cc" stroke="#3a3128" stroke-width="1.4" opacity="1"/><text x="742.0" y="519.5" font-size="10" fill="#2a2420" text-anchor="middle" font-weight="500" transform="rotate(90 742.0 516.0)">non-veg prep</text><text x="712.0" y="519.2" font-size="9" fill="#4a4038" text-anchor="middle" font-weight="500" transform="rotate(90 712.0 516.0)">rice cooker below</text><rect x="598.0" y="642.0" width="84.0" height="82.8" rx="0" fill="#c3c8cc" stroke="#3a3128" stroke-width="1.4" opacity="1"/><text x="640.0" y="699.5" font-size="10" fill="#2a2420" text-anchor="middle" font-weight="500">dumpling prep</text><text x="640.0" y="669.2" font-size="9" fill="#4a4038" text-anchor="middle" font-weight="500">+ u/c freezer</text><rect x="484.0" y="648.0" width="114.0" height="76.8" rx="0" fill="#c3c8cc" stroke="#3a3128" stroke-width="1.4" opacity="1"/><text x="541.6" y="687.5" font-size="10" fill="#2a2420" text-anchor="middle" font-weight="500">pass + heat lamp</text><rect x="628.0" y="378.0" width="144.0" height="78.0" rx="0" fill="#9aa0a5" stroke="#3a3128" stroke-width="1.4" opacity="1"/><text x="700.0" y="421.1" font-size="10" fill="#fff" text-anchor="middle" font-weight="700">wok ×2</text><rect x="526.0" y="378.0" width="96.0" height="78.0" rx="0" fill="#9aa0a5" stroke="#3a3128" stroke-width="1.4" opacity="1"/><text x="574.0" y="421.1" font-size="10" fill="#fff" text-anchor="middle" font-weight="700">steamer</text><rect x="448.0" y="378.0" width="72.0" height="78.0" rx="0" fill="#9aa0a5" stroke="#3a3128" stroke-width="1.4" opacity="1"/><text x="484.0" y="421.1" font-size="10" fill="#fff" text-anchor="middle" font-weight="700">fryer ×2</text><rect x="376.0" y="378.0" width="66.0" height="78.0" rx="0" fill="#9aa0a5" stroke="#3a3128" stroke-width="1.4" opacity="1"/><text x="409.0" y="421.1" font-size="10" fill="#fff" text-anchor="middle" font-weight="700">range ×2</text><rect x="370.0" y="380.4" width="399.6" height="111.6" rx="0" fill="none" stroke="#c4442a" stroke-width="1.3" opacity="1" stroke-dasharray="8 4"/><text x="574.0" y="477.5" font-size="10" fill="#b23a1e" text-anchor="middle" font-weight="500">canopy hood 3.4×0.95 (bottom 2.05 m)</text><rect x="232.0" y="624.0" width="78.0" height="84.0" rx="0" fill="#c3c8cc" stroke="#3a3128" stroke-width="1.4" opacity="1"/><text x="271.6" y="669.5" font-size="10" fill="#2a2420" text-anchor="middle" font-weight="500">hand-wash</text><rect x="232.0" y="546.0" width="78.0" height="78.0" rx="0" fill="#c3c8cc" stroke="#3a3128" stroke-width="1.4" opacity="1"/><text x="271.6" y="603.5" font-size="10" fill="#2a2420" text-anchor="middle" font-weight="500">pre-rinse</text><text x="271.6" y="573.1" font-size="9" fill="#4a4038" text-anchor="middle" font-weight="500">u/c dishwasher</text><rect x="232.0" y="450.0" width="78.0" height="96.0" rx="0" fill="#c3c8cc" stroke="#3a3128" stroke-width="1.4" opacity="1"/><text x="271.6" y="501.5" font-size="10" fill="#2a2420" text-anchor="middle" font-weight="500">2-bowl pot sink</text><text x="574.0" y="544.2" font-size="12" fill="#2a2420" text-anchor="middle" font-weight="700">KITCHEN 4.5 × 2.9 · ceiling 2.7</text><rect x="388.0" y="516.0" width="72.0" height="96.0" rx="0" fill="none" stroke="#2a6f8f" stroke-width="1.4" opacity="1" stroke-dasharray="5 3"/><text x="424.0" y="582.9" font-size="9.5" fill="#2a6f8f" text-anchor="middle" font-weight="700">hatch</text><text x="424.0" y="551.7" font-size="9.5" fill="#2a6f8f" text-anchor="middle" font-weight="500">+ ladder</text><text x="574.0" y="579.5" font-size="10" fill="#2a6f8f" text-anchor="middle" font-weight="500">storage deck above (+2.7 m, 12.6 m²)</text><rect x="268.0" y="354.0" width="96.0" height="24.0" rx="0" fill="#fbf7ef" stroke="#fbf7ef" stroke-width="1" opacity="1"/><text x="316.0" y="339.9" font-size="11" fill="#6a5d4e" text-anchor="middle" font-weight="500">rear exit</text><rect x="652.0" y="252.0" width="108.0" height="84.0" rx="0" fill="#f3d6cf" stroke="#b23a1e" stroke-width="1" opacity="1"/><text x="706.0" y="297.5" font-size="10" fill="#b23a1e" text-anchor="middle" font-weight="500">LPG cage</text><rect x="214.0" y="174.0" width="72.0" height="72.0" rx="0" fill="#e9e9e9" stroke="#3a3128" stroke-width="1.4" opacity="1"/><text x="250.0" y="213.5" font-size="10" fill="#2a2420" text-anchor="middle" font-weight="500">kegs</text><rect x="370.0" y="174.0" width="108.0" height="84.0" rx="0" fill="#d9c7a8" stroke="#8f5634" stroke-width="1.4" opacity="1"/><text x="424.0" y="219.5" font-size="10" fill="#2a2420" text-anchor="middle" font-weight="500">bins 0.9×0.7</text><rect x="400.0" y="315.6" width="96.0" height="36.0" rx="0" fill="#ffffff" stroke="#3a3128" stroke-width="1.4" opacity="1"/><text x="448.0" y="336.8" font-size="9" fill="#2a2420" text-anchor="middle" font-weight="500">AC ×2</text><g stroke="#c4442a" stroke-width="1.2"><line x1="232.0" y1="354.0000000000001" x2="772.0" y2="354.0000000000001"/><line x1="232.0" y1="348.0000000000001" x2="232.0" y2="360.0000000000001"/><line x1="772.0" y1="348.0000000000001" x2="772.0" y2="360.0000000000001"/></g><text x="502.0" y="349.0000000000001" font-size="12.5" fill="#b23a1e" text-anchor="middle" font-weight="600">4.50 (inside)</text><g stroke="#c4442a" stroke-width="1.2"><line x1="161.99999999999997" y1="1638.0" x2="161.99999999999997" y2="378.00000000000006"/><line x1="155.99999999999997" y1="1638.0" x2="167.99999999999997" y2="1638.0"/><line x1="155.99999999999997" y1="378.00000000000006" x2="167.99999999999997" y2="378.00000000000006"/></g><text x="155.99999999999997" y="1008.0" font-size="12.5" fill="#b23a1e" text-anchor="middle" font-weight="600" transform="rotate(-90 155.99999999999997 1008.0)">10.50 (inside)</text><g stroke="#c4442a" stroke-width="1.2"><line x1="848.0" y1="1638.0" x2="848.0" y2="1362.0000000000002"/><line x1="842.0" y1="1638.0" x2="854.0" y2="1638.0"/><line x1="842.0" y1="1362.0000000000002" x2="854.0" y2="1362.0000000000002"/></g><text x="842.0" y="1500.0" font-size="12.5" fill="#b23a1e" text-anchor="middle" font-weight="600" transform="rotate(-90 842.0 1500.0)">2.30</text><g stroke="#c4442a" stroke-width="1.2"><line x1="848.0" y1="1362.0000000000002" x2="848.0" y2="1002.0000000000001"/><line x1="842.0" y1="1362.0000000000002" x2="854.0" y2="1362.0000000000002"/><line x1="842.0" y1="1002.0000000000001" x2="854.0" y2="1002.0000000000001"/></g><text x="842.0" y="1182.0000000000002" font-size="12.5" fill="#b23a1e" text-anchor="middle" font-weight="600" transform="rotate(-90 842.0 1182.0000000000002)">bar 3.00</text><g stroke="#c4442a" stroke-width="1.2"><line x1="848.0" y1="990.0" x2="848.0" y2="846.0000000000001"/><line x1="842.0" y1="990.0" x2="854.0" y2="990.0"/><line x1="842.0" y1="846.0000000000001" x2="854.0" y2="846.0000000000001"/></g><text x="842.0" y="918.0" font-size="12.5" fill="#b23a1e" text-anchor="middle" font-weight="600" transform="rotate(-90 842.0 918.0)">1.20</text><g stroke="#c4442a" stroke-width="1.2"><line x1="848.0" y1="738.0" x2="848.0" y2="378.00000000000006"/><line x1="842.0" y1="738.0" x2="854.0" y2="738.0"/><line x1="842.0" y1="378.00000000000006" x2="854.0" y2="378.00000000000006"/></g><text x="842.0" y="558.0" font-size="12.5" fill="#b23a1e" text-anchor="middle" font-weight="600" transform="rotate(-90 842.0 558.0)">kitchen 3.00</text><g stroke="#c4442a" stroke-width="1.2"><line x1="189.99999999999997" y1="1620.0" x2="189.99999999999997" y2="1368.0"/><line x1="183.99999999999997" y1="1620.0" x2="195.99999999999997" y2="1620.0"/><line x1="183.99999999999997" y1="1368.0" x2="195.99999999999997" y2="1368.0"/></g><text x="183.99999999999997" y="1494.0" font-size="12.5" fill="#b23a1e" text-anchor="middle" font-weight="600" transform="rotate(-90 183.99999999999997 1494.0)">2.10</text><g stroke="#c4442a" stroke-width="1.2"><line x1="189.99999999999997" y1="1326.0" x2="189.99999999999997" y2="1086.0"/><line x1="183.99999999999997" y1="1326.0" x2="195.99999999999997" y2="1326.0"/><line x1="183.99999999999997" y1="1086.0" x2="195.99999999999997" y2="1086.0"/></g><text x="183.99999999999997" y="1206.0" font-size="12.5" fill="#b23a1e" text-anchor="middle" font-weight="600" transform="rotate(-90 183.99999999999997 1206.0)">bench 2.00</text><g stroke="#c4442a" stroke-width="1.2"><line x1="189.99999999999997" y1="1050.0" x2="189.99999999999997" y2="960.0"/><line x1="183.99999999999997" y1="1050.0" x2="195.99999999999997" y2="1050.0"/><line x1="183.99999999999997" y1="960.0" x2="195.99999999999997" y2="960.0"/></g><text x="183.99999999999997" y="1005.0" font-size="12.5" fill="#b23a1e" text-anchor="middle" font-weight="600" transform="rotate(-90 183.99999999999997 1005.0)">0.75</text><g stroke="#c4442a" stroke-width="1.2"><line x1="189.99999999999997" y1="948.0" x2="189.99999999999997" y2="738.0"/><line x1="183.99999999999997" y1="948.0" x2="195.99999999999997" y2="948.0"/><line x1="183.99999999999997" y1="738.0" x2="195.99999999999997" y2="738.0"/></g><text x="183.99999999999997" y="843.0" font-size="12.5" fill="#b23a1e" text-anchor="middle" font-weight="600" transform="rotate(-90 183.99999999999997 843.0)">WC 1.75</text><g stroke="#c4442a" stroke-width="1.2"><line x1="664.0" y1="882.0000000000001" x2="376.0" y2="882.0000000000001"/><line x1="664.0" y1="876.0000000000001" x2="664.0" y2="888.0000000000001"/><line x1="376.0" y1="876.0000000000001" x2="376.0" y2="888.0000000000001"/></g><text x="520.0" y="877.0000000000001" font-size="12.5" fill="#b23a1e" text-anchor="middle" font-weight="600">2.40 clear</text><text x="502.0" y="1053.5" font-size="10" fill="#8a7a62" text-anchor="middle" font-weight="500">(T1 overhead 4.05)</text><text x="550.0" y="775.5" font-size="11" fill="#8a7a62" text-anchor="middle" font-weight="500">double height 4.5 m to the slab over all seating</text>
<g transform="translate(40,2088)"><rect width="120" height="10" fill="#2a2420"/><rect x="120" width="120" height="10" fill="none" stroke="#2a2420"/><text y="30" font-size="13" fill="#2a2420">0</text><text x="120" y="30" font-size="13" text-anchor="middle" fill="#2a2420">1 m</text><text x="240" y="30" font-size="13" text-anchor="middle" fill="#2a2420">2 m</text>
<text x="300" y="10" font-size="13" fill="#6a5d4e">All dimensions in metres. Left/right as you walk in from the road (road at the bottom). Dashed = overhead beams, kitchen hood and storage hatch.</text></g>
<g font-family="IBM Plex Sans, Helvetica, Arial, sans-serif"><rect x="1054" y="136" width="290" height="330" fill="#fffdf8" stroke="#d9cbb3"/><text x="1072" y="162" font-size="15" font-weight="700" fill="#2a2420">COVERS</text><text x="1072" y="192" font-size="14" fill="#2a2420">Bar stools</text><text x="1326" y="192" font-size="14" text-anchor="end" fill="#2a2420">4</text><text x="1072" y="222" font-size="14" fill="#2a2420">Window tables, right</text><text x="1326" y="222" font-size="14" text-anchor="end" fill="#2a2420">6</text><text x="1072" y="252" font-size="14" fill="#2a2420">Window booth, left</text><text x="1326" y="252" font-size="14" text-anchor="end" fill="#2a2420">6</text><text x="1072" y="282" font-size="14" fill="#2a2420">Bench facing the bar</text><text x="1326" y="282" font-size="14" text-anchor="end" fill="#2a2420">4</text><text x="1072" y="312" font-size="14" fill="#2a2420">Beer garden, 4.9 × 2.0 m</text><text x="1326" y="312" font-size="14" text-anchor="end" fill="#2a2420">8</text><line x1="1072" y1="322" x2="1326" y2="322" stroke="#2a2420"/><text x="1072" y="342" font-size="14" fill="#2a2420" font-weight="700">Total</text><text x="1326" y="342" font-size="14" text-anchor="end" fill="#2a2420" font-weight="700">28</text><text x="1072" y="380" font-size="12.5" fill="#6a5d4e">No loft, no stair: one double-height</text><text x="1072" y="399" font-size="12.5" fill="#6a5d4e">room. Every seat has a backrest.</text><text x="1072" y="418" font-size="12.5" fill="#6a5d4e">Kitchen sized to the 22-dish menu.</text><text x="1072" y="437" font-size="12.5" fill="#6a5d4e">Storage deck over the kitchen.</text><text x="1072" y="456" font-size="12.5" fill="#6a5d4e">Acoustic cloud in every bay;</text><text x="1072" y="475" font-size="12.5" fill="#6a5d4e">printed fabric panels on upper walls.</text></g></svg>